G04 #@! TF.FileFunction,Copper,L2,Bot,Signal*
%FSLAX46Y46*%
G04 Gerber Fmt 4.6, Leading zero omitted, Abs format (unit mm)*
G04 Created by KiCad (PCBNEW 4.0.5) date 07/09/17 13:00:44*
%MOMM*%
%LPD*%
G01*
G04 APERTURE LIST*
%ADD10C,0.100000*%
%ADD11R,1.600000X2.400000*%
%ADD12O,1.600000X2.400000*%
%ADD13R,1.700000X1.700000*%
%ADD14O,1.700000X1.700000*%
%ADD15C,4.500000*%
%ADD16C,1.700000*%
%ADD17C,0.600000*%
%ADD18C,0.300000*%
%ADD19C,0.254000*%
G04 APERTURE END LIST*
D10*
D11*
X186220000Y-121240000D03*
D12*
X219240000Y-106000000D03*
X188760000Y-121240000D03*
X216700000Y-106000000D03*
X191300000Y-121240000D03*
X214160000Y-106000000D03*
X193840000Y-121240000D03*
X211620000Y-106000000D03*
X196380000Y-121240000D03*
X209080000Y-106000000D03*
X198920000Y-121240000D03*
X206540000Y-106000000D03*
X201460000Y-121240000D03*
X204000000Y-106000000D03*
X204000000Y-121240000D03*
X201460000Y-106000000D03*
X206540000Y-121240000D03*
X198920000Y-106000000D03*
X209080000Y-121240000D03*
X196380000Y-106000000D03*
X211620000Y-121240000D03*
X193840000Y-106000000D03*
X214160000Y-121240000D03*
X191300000Y-106000000D03*
X216700000Y-121240000D03*
X188760000Y-106000000D03*
X219240000Y-121240000D03*
X186220000Y-106000000D03*
X221780000Y-121240000D03*
X221780000Y-106000000D03*
D13*
X173000000Y-103960000D03*
D14*
X173000000Y-106500000D03*
X173000000Y-109040000D03*
D13*
X173000000Y-119540000D03*
D14*
X173000000Y-117000000D03*
X173000000Y-114460000D03*
D15*
X173950000Y-96420000D03*
X221050000Y-96420000D03*
D16*
X214120000Y-97840000D03*
X211350000Y-97840000D03*
X208580000Y-97840000D03*
X205810000Y-97840000D03*
X203040000Y-97840000D03*
X200270000Y-97840000D03*
X197500000Y-97840000D03*
X194730000Y-97840000D03*
X191960000Y-97840000D03*
X189190000Y-97840000D03*
X186420000Y-97840000D03*
X183650000Y-97840000D03*
X180880000Y-97840000D03*
X212735000Y-95000000D03*
X209965000Y-95000000D03*
X207195000Y-95000000D03*
X204425000Y-95000000D03*
X201655000Y-95000000D03*
X198885000Y-95000000D03*
X196115000Y-95000000D03*
X193345000Y-95000000D03*
X190575000Y-95000000D03*
X187805000Y-95000000D03*
X185035000Y-95000000D03*
X182265000Y-95000000D03*
D17*
X176500000Y-108750000D03*
X182750000Y-111500000D03*
X179500000Y-118250000D03*
X176000000Y-117250000D03*
X204500000Y-100000000D03*
X207500000Y-101250000D03*
X194500000Y-103250000D03*
X179500000Y-114500000D03*
D18*
X191960000Y-97840000D02*
X194120000Y-100000000D01*
X194120000Y-100000000D02*
X204500000Y-100000000D01*
X192600000Y-101250000D02*
X207500000Y-101250000D01*
X189190000Y-97840000D02*
X192600000Y-101250000D01*
X191830000Y-103250000D02*
X194500000Y-103250000D01*
X186420000Y-97840000D02*
X191830000Y-103250000D01*
X186220000Y-121240000D02*
X186220000Y-120840000D01*
X186220000Y-120840000D02*
X179880000Y-114500000D01*
X179880000Y-114500000D02*
X179500000Y-114500000D01*
D19*
G36*
X224873000Y-123873000D02*
X170127000Y-123873000D01*
X170127000Y-117000000D01*
X171485907Y-117000000D01*
X171598946Y-117568285D01*
X171920853Y-118050054D01*
X171962452Y-118077850D01*
X171914683Y-118086838D01*
X171698559Y-118225910D01*
X171553569Y-118438110D01*
X171502560Y-118690000D01*
X171502560Y-120390000D01*
X171546838Y-120625317D01*
X171685910Y-120841441D01*
X171898110Y-120986431D01*
X172150000Y-121037440D01*
X173850000Y-121037440D01*
X174085317Y-120993162D01*
X174301441Y-120854090D01*
X174446431Y-120641890D01*
X174497440Y-120390000D01*
X174497440Y-118690000D01*
X174453162Y-118454683D01*
X174314090Y-118238559D01*
X174101890Y-118093569D01*
X174034459Y-118079914D01*
X174079147Y-118050054D01*
X174401054Y-117568285D01*
X174514093Y-117000000D01*
X174401054Y-116431715D01*
X174079147Y-115949946D01*
X173738447Y-115722298D01*
X173881358Y-115655183D01*
X174271645Y-115226924D01*
X174441476Y-114816890D01*
X174371962Y-114685167D01*
X178564838Y-114685167D01*
X178706883Y-115028943D01*
X178969673Y-115292192D01*
X179313201Y-115434838D01*
X179685167Y-115435162D01*
X179699204Y-115429362D01*
X184772560Y-120502718D01*
X184772560Y-122440000D01*
X184816838Y-122675317D01*
X184955910Y-122891441D01*
X185168110Y-123036431D01*
X185420000Y-123087440D01*
X187020000Y-123087440D01*
X187255317Y-123043162D01*
X187471441Y-122904090D01*
X187616431Y-122691890D01*
X187646597Y-122542926D01*
X187745302Y-122690648D01*
X188210849Y-123001717D01*
X188760000Y-123110950D01*
X189309151Y-123001717D01*
X189774698Y-122690648D01*
X190030000Y-122308562D01*
X190285302Y-122690648D01*
X190750849Y-123001717D01*
X191300000Y-123110950D01*
X191849151Y-123001717D01*
X192314698Y-122690648D01*
X192567507Y-122312293D01*
X192915104Y-122744500D01*
X193408181Y-123014367D01*
X193490961Y-123031904D01*
X193713000Y-122909915D01*
X193713000Y-121367000D01*
X193693000Y-121367000D01*
X193693000Y-121113000D01*
X193713000Y-121113000D01*
X193713000Y-119570085D01*
X193967000Y-119570085D01*
X193967000Y-121113000D01*
X193987000Y-121113000D01*
X193987000Y-121367000D01*
X193967000Y-121367000D01*
X193967000Y-122909915D01*
X194189039Y-123031904D01*
X194271819Y-123014367D01*
X194764896Y-122744500D01*
X195112493Y-122312293D01*
X195365302Y-122690648D01*
X195830849Y-123001717D01*
X196380000Y-123110950D01*
X196929151Y-123001717D01*
X197394698Y-122690648D01*
X197650000Y-122308562D01*
X197905302Y-122690648D01*
X198370849Y-123001717D01*
X198920000Y-123110950D01*
X199469151Y-123001717D01*
X199934698Y-122690648D01*
X200190000Y-122308562D01*
X200445302Y-122690648D01*
X200910849Y-123001717D01*
X201460000Y-123110950D01*
X202009151Y-123001717D01*
X202474698Y-122690648D01*
X202730000Y-122308562D01*
X202985302Y-122690648D01*
X203450849Y-123001717D01*
X204000000Y-123110950D01*
X204549151Y-123001717D01*
X205014698Y-122690648D01*
X205270000Y-122308562D01*
X205525302Y-122690648D01*
X205990849Y-123001717D01*
X206540000Y-123110950D01*
X207089151Y-123001717D01*
X207554698Y-122690648D01*
X207810000Y-122308562D01*
X208065302Y-122690648D01*
X208530849Y-123001717D01*
X209080000Y-123110950D01*
X209629151Y-123001717D01*
X210094698Y-122690648D01*
X210350000Y-122308562D01*
X210605302Y-122690648D01*
X211070849Y-123001717D01*
X211620000Y-123110950D01*
X212169151Y-123001717D01*
X212634698Y-122690648D01*
X212890000Y-122308562D01*
X213145302Y-122690648D01*
X213610849Y-123001717D01*
X214160000Y-123110950D01*
X214709151Y-123001717D01*
X215174698Y-122690648D01*
X215430000Y-122308562D01*
X215685302Y-122690648D01*
X216150849Y-123001717D01*
X216700000Y-123110950D01*
X217249151Y-123001717D01*
X217714698Y-122690648D01*
X217970000Y-122308562D01*
X218225302Y-122690648D01*
X218690849Y-123001717D01*
X219240000Y-123110950D01*
X219789151Y-123001717D01*
X220254698Y-122690648D01*
X220510000Y-122308562D01*
X220765302Y-122690648D01*
X221230849Y-123001717D01*
X221780000Y-123110950D01*
X222329151Y-123001717D01*
X222794698Y-122690648D01*
X223105767Y-122225101D01*
X223215000Y-121675950D01*
X223215000Y-120804050D01*
X223105767Y-120254899D01*
X222794698Y-119789352D01*
X222329151Y-119478283D01*
X221780000Y-119369050D01*
X221230849Y-119478283D01*
X220765302Y-119789352D01*
X220510000Y-120171438D01*
X220254698Y-119789352D01*
X219789151Y-119478283D01*
X219240000Y-119369050D01*
X218690849Y-119478283D01*
X218225302Y-119789352D01*
X217970000Y-120171438D01*
X217714698Y-119789352D01*
X217249151Y-119478283D01*
X216700000Y-119369050D01*
X216150849Y-119478283D01*
X215685302Y-119789352D01*
X215430000Y-120171438D01*
X215174698Y-119789352D01*
X214709151Y-119478283D01*
X214160000Y-119369050D01*
X213610849Y-119478283D01*
X213145302Y-119789352D01*
X212890000Y-120171438D01*
X212634698Y-119789352D01*
X212169151Y-119478283D01*
X211620000Y-119369050D01*
X211070849Y-119478283D01*
X210605302Y-119789352D01*
X210350000Y-120171438D01*
X210094698Y-119789352D01*
X209629151Y-119478283D01*
X209080000Y-119369050D01*
X208530849Y-119478283D01*
X208065302Y-119789352D01*
X207810000Y-120171438D01*
X207554698Y-119789352D01*
X207089151Y-119478283D01*
X206540000Y-119369050D01*
X205990849Y-119478283D01*
X205525302Y-119789352D01*
X205270000Y-120171438D01*
X205014698Y-119789352D01*
X204549151Y-119478283D01*
X204000000Y-119369050D01*
X203450849Y-119478283D01*
X202985302Y-119789352D01*
X202730000Y-120171438D01*
X202474698Y-119789352D01*
X202009151Y-119478283D01*
X201460000Y-119369050D01*
X200910849Y-119478283D01*
X200445302Y-119789352D01*
X200190000Y-120171438D01*
X199934698Y-119789352D01*
X199469151Y-119478283D01*
X198920000Y-119369050D01*
X198370849Y-119478283D01*
X197905302Y-119789352D01*
X197650000Y-120171438D01*
X197394698Y-119789352D01*
X196929151Y-119478283D01*
X196380000Y-119369050D01*
X195830849Y-119478283D01*
X195365302Y-119789352D01*
X195112493Y-120167707D01*
X194764896Y-119735500D01*
X194271819Y-119465633D01*
X194189039Y-119448096D01*
X193967000Y-119570085D01*
X193713000Y-119570085D01*
X193490961Y-119448096D01*
X193408181Y-119465633D01*
X192915104Y-119735500D01*
X192567507Y-120167707D01*
X192314698Y-119789352D01*
X191849151Y-119478283D01*
X191300000Y-119369050D01*
X190750849Y-119478283D01*
X190285302Y-119789352D01*
X190030000Y-120171438D01*
X189774698Y-119789352D01*
X189309151Y-119478283D01*
X188760000Y-119369050D01*
X188210849Y-119478283D01*
X187745302Y-119789352D01*
X187647749Y-119935350D01*
X187623162Y-119804683D01*
X187484090Y-119588559D01*
X187271890Y-119443569D01*
X187020000Y-119392560D01*
X185882718Y-119392560D01*
X180435079Y-113944921D01*
X180180407Y-113774755D01*
X180076531Y-113754093D01*
X180030327Y-113707808D01*
X179686799Y-113565162D01*
X179314833Y-113564838D01*
X178971057Y-113706883D01*
X178707808Y-113969673D01*
X178565162Y-114313201D01*
X178564838Y-114685167D01*
X174371962Y-114685167D01*
X174320155Y-114587000D01*
X173127000Y-114587000D01*
X173127000Y-114607000D01*
X172873000Y-114607000D01*
X172873000Y-114587000D01*
X171679845Y-114587000D01*
X171558524Y-114816890D01*
X171728355Y-115226924D01*
X172118642Y-115655183D01*
X172261553Y-115722298D01*
X171920853Y-115949946D01*
X171598946Y-116431715D01*
X171485907Y-117000000D01*
X170127000Y-117000000D01*
X170127000Y-114103110D01*
X171558524Y-114103110D01*
X171679845Y-114333000D01*
X172873000Y-114333000D01*
X172873000Y-113139181D01*
X173127000Y-113139181D01*
X173127000Y-114333000D01*
X174320155Y-114333000D01*
X174441476Y-114103110D01*
X174271645Y-113693076D01*
X173881358Y-113264817D01*
X173356892Y-113018514D01*
X173127000Y-113139181D01*
X172873000Y-113139181D01*
X172643108Y-113018514D01*
X172118642Y-113264817D01*
X171728355Y-113693076D01*
X171558524Y-114103110D01*
X170127000Y-114103110D01*
X170127000Y-109396890D01*
X171558524Y-109396890D01*
X171728355Y-109806924D01*
X172118642Y-110235183D01*
X172643108Y-110481486D01*
X172873000Y-110360819D01*
X172873000Y-109167000D01*
X173127000Y-109167000D01*
X173127000Y-110360819D01*
X173356892Y-110481486D01*
X173881358Y-110235183D01*
X174271645Y-109806924D01*
X174441476Y-109396890D01*
X174320155Y-109167000D01*
X173127000Y-109167000D01*
X172873000Y-109167000D01*
X171679845Y-109167000D01*
X171558524Y-109396890D01*
X170127000Y-109396890D01*
X170127000Y-106500000D01*
X171485907Y-106500000D01*
X171598946Y-107068285D01*
X171920853Y-107550054D01*
X172261553Y-107777702D01*
X172118642Y-107844817D01*
X171728355Y-108273076D01*
X171558524Y-108683110D01*
X171679845Y-108913000D01*
X172873000Y-108913000D01*
X172873000Y-108893000D01*
X173127000Y-108893000D01*
X173127000Y-108913000D01*
X174320155Y-108913000D01*
X174441476Y-108683110D01*
X174271645Y-108273076D01*
X173881358Y-107844817D01*
X173738447Y-107777702D01*
X174079147Y-107550054D01*
X174401054Y-107068285D01*
X174514093Y-106500000D01*
X174401054Y-105931715D01*
X174155389Y-105564050D01*
X184785000Y-105564050D01*
X184785000Y-106435950D01*
X184894233Y-106985101D01*
X185205302Y-107450648D01*
X185670849Y-107761717D01*
X186220000Y-107870950D01*
X186769151Y-107761717D01*
X187234698Y-107450648D01*
X187487507Y-107072293D01*
X187835104Y-107504500D01*
X188328181Y-107774367D01*
X188410961Y-107791904D01*
X188633000Y-107669915D01*
X188633000Y-106127000D01*
X188613000Y-106127000D01*
X188613000Y-105873000D01*
X188633000Y-105873000D01*
X188633000Y-104330085D01*
X188887000Y-104330085D01*
X188887000Y-105873000D01*
X188907000Y-105873000D01*
X188907000Y-106127000D01*
X188887000Y-106127000D01*
X188887000Y-107669915D01*
X189109039Y-107791904D01*
X189191819Y-107774367D01*
X189684896Y-107504500D01*
X190032493Y-107072293D01*
X190285302Y-107450648D01*
X190750849Y-107761717D01*
X191300000Y-107870950D01*
X191849151Y-107761717D01*
X192314698Y-107450648D01*
X192570000Y-107068562D01*
X192825302Y-107450648D01*
X193290849Y-107761717D01*
X193840000Y-107870950D01*
X194389151Y-107761717D01*
X194854698Y-107450648D01*
X195110000Y-107068562D01*
X195365302Y-107450648D01*
X195830849Y-107761717D01*
X196380000Y-107870950D01*
X196929151Y-107761717D01*
X197394698Y-107450648D01*
X197650000Y-107068562D01*
X197905302Y-107450648D01*
X198370849Y-107761717D01*
X198920000Y-107870950D01*
X199469151Y-107761717D01*
X199934698Y-107450648D01*
X200190000Y-107068562D01*
X200445302Y-107450648D01*
X200910849Y-107761717D01*
X201460000Y-107870950D01*
X202009151Y-107761717D01*
X202474698Y-107450648D01*
X202730000Y-107068562D01*
X202985302Y-107450648D01*
X203450849Y-107761717D01*
X204000000Y-107870950D01*
X204549151Y-107761717D01*
X205014698Y-107450648D01*
X205270000Y-107068562D01*
X205525302Y-107450648D01*
X205990849Y-107761717D01*
X206540000Y-107870950D01*
X207089151Y-107761717D01*
X207554698Y-107450648D01*
X207810000Y-107068562D01*
X208065302Y-107450648D01*
X208530849Y-107761717D01*
X209080000Y-107870950D01*
X209629151Y-107761717D01*
X210094698Y-107450648D01*
X210350000Y-107068562D01*
X210605302Y-107450648D01*
X211070849Y-107761717D01*
X211620000Y-107870950D01*
X212169151Y-107761717D01*
X212634698Y-107450648D01*
X212890000Y-107068562D01*
X213145302Y-107450648D01*
X213610849Y-107761717D01*
X214160000Y-107870950D01*
X214709151Y-107761717D01*
X215174698Y-107450648D01*
X215430000Y-107068562D01*
X215685302Y-107450648D01*
X216150849Y-107761717D01*
X216700000Y-107870950D01*
X217249151Y-107761717D01*
X217714698Y-107450648D01*
X217970000Y-107068562D01*
X218225302Y-107450648D01*
X218690849Y-107761717D01*
X219240000Y-107870950D01*
X219789151Y-107761717D01*
X220254698Y-107450648D01*
X220510000Y-107068562D01*
X220765302Y-107450648D01*
X221230849Y-107761717D01*
X221780000Y-107870950D01*
X222329151Y-107761717D01*
X222794698Y-107450648D01*
X223105767Y-106985101D01*
X223215000Y-106435950D01*
X223215000Y-105564050D01*
X223105767Y-105014899D01*
X222794698Y-104549352D01*
X222329151Y-104238283D01*
X221780000Y-104129050D01*
X221230849Y-104238283D01*
X220765302Y-104549352D01*
X220510000Y-104931438D01*
X220254698Y-104549352D01*
X219789151Y-104238283D01*
X219240000Y-104129050D01*
X218690849Y-104238283D01*
X218225302Y-104549352D01*
X217970000Y-104931438D01*
X217714698Y-104549352D01*
X217249151Y-104238283D01*
X216700000Y-104129050D01*
X216150849Y-104238283D01*
X215685302Y-104549352D01*
X215430000Y-104931438D01*
X215174698Y-104549352D01*
X214709151Y-104238283D01*
X214160000Y-104129050D01*
X213610849Y-104238283D01*
X213145302Y-104549352D01*
X212890000Y-104931438D01*
X212634698Y-104549352D01*
X212169151Y-104238283D01*
X211620000Y-104129050D01*
X211070849Y-104238283D01*
X210605302Y-104549352D01*
X210350000Y-104931438D01*
X210094698Y-104549352D01*
X209629151Y-104238283D01*
X209080000Y-104129050D01*
X208530849Y-104238283D01*
X208065302Y-104549352D01*
X207810000Y-104931438D01*
X207554698Y-104549352D01*
X207089151Y-104238283D01*
X206540000Y-104129050D01*
X205990849Y-104238283D01*
X205525302Y-104549352D01*
X205270000Y-104931438D01*
X205014698Y-104549352D01*
X204549151Y-104238283D01*
X204000000Y-104129050D01*
X203450849Y-104238283D01*
X202985302Y-104549352D01*
X202730000Y-104931438D01*
X202474698Y-104549352D01*
X202009151Y-104238283D01*
X201460000Y-104129050D01*
X200910849Y-104238283D01*
X200445302Y-104549352D01*
X200190000Y-104931438D01*
X199934698Y-104549352D01*
X199469151Y-104238283D01*
X198920000Y-104129050D01*
X198370849Y-104238283D01*
X197905302Y-104549352D01*
X197650000Y-104931438D01*
X197394698Y-104549352D01*
X196929151Y-104238283D01*
X196380000Y-104129050D01*
X195830849Y-104238283D01*
X195365302Y-104549352D01*
X195110000Y-104931438D01*
X194854698Y-104549352D01*
X194389151Y-104238283D01*
X193840000Y-104129050D01*
X193290849Y-104238283D01*
X192825302Y-104549352D01*
X192570000Y-104931438D01*
X192314698Y-104549352D01*
X191849151Y-104238283D01*
X191300000Y-104129050D01*
X190750849Y-104238283D01*
X190285302Y-104549352D01*
X190032493Y-104927707D01*
X189684896Y-104495500D01*
X189191819Y-104225633D01*
X189109039Y-104208096D01*
X188887000Y-104330085D01*
X188633000Y-104330085D01*
X188410961Y-104208096D01*
X188328181Y-104225633D01*
X187835104Y-104495500D01*
X187487507Y-104927707D01*
X187234698Y-104549352D01*
X186769151Y-104238283D01*
X186220000Y-104129050D01*
X185670849Y-104238283D01*
X185205302Y-104549352D01*
X184894233Y-105014899D01*
X184785000Y-105564050D01*
X174155389Y-105564050D01*
X174079147Y-105449946D01*
X174037548Y-105422150D01*
X174085317Y-105413162D01*
X174301441Y-105274090D01*
X174446431Y-105061890D01*
X174497440Y-104810000D01*
X174497440Y-103110000D01*
X174453162Y-102874683D01*
X174314090Y-102658559D01*
X174101890Y-102513569D01*
X173850000Y-102462560D01*
X172150000Y-102462560D01*
X171914683Y-102506838D01*
X171698559Y-102645910D01*
X171553569Y-102858110D01*
X171502560Y-103110000D01*
X171502560Y-104810000D01*
X171546838Y-105045317D01*
X171685910Y-105261441D01*
X171898110Y-105406431D01*
X171965541Y-105420086D01*
X171920853Y-105449946D01*
X171598946Y-105931715D01*
X171485907Y-106500000D01*
X170127000Y-106500000D01*
X170127000Y-98475467D01*
X172074138Y-98475467D01*
X172325375Y-98872169D01*
X173387446Y-99307227D01*
X174535162Y-99302730D01*
X175574625Y-98872169D01*
X175825862Y-98475467D01*
X173950000Y-96599605D01*
X172074138Y-98475467D01*
X170127000Y-98475467D01*
X170127000Y-95857446D01*
X171062773Y-95857446D01*
X171067270Y-97005162D01*
X171497831Y-98044625D01*
X171894533Y-98295862D01*
X173770395Y-96420000D01*
X174129605Y-96420000D01*
X176005467Y-98295862D01*
X176260905Y-98134089D01*
X179394743Y-98134089D01*
X179620344Y-98680086D01*
X180037717Y-99098188D01*
X180583319Y-99324742D01*
X181174089Y-99325257D01*
X181720086Y-99099656D01*
X182138188Y-98682283D01*
X182265032Y-98376808D01*
X182390344Y-98680086D01*
X182807717Y-99098188D01*
X183353319Y-99324742D01*
X183944089Y-99325257D01*
X184490086Y-99099656D01*
X184908188Y-98682283D01*
X185035032Y-98376808D01*
X185160344Y-98680086D01*
X185577717Y-99098188D01*
X186123319Y-99324742D01*
X186714089Y-99325257D01*
X186771413Y-99301571D01*
X191274921Y-103805079D01*
X191529593Y-103975245D01*
X191830000Y-104035000D01*
X193962494Y-104035000D01*
X193969673Y-104042192D01*
X194313201Y-104184838D01*
X194685167Y-104185162D01*
X195028943Y-104043117D01*
X195292192Y-103780327D01*
X195434838Y-103436799D01*
X195435162Y-103064833D01*
X195293117Y-102721057D01*
X195030327Y-102457808D01*
X194686799Y-102315162D01*
X194314833Y-102314838D01*
X193971057Y-102456883D01*
X193962926Y-102465000D01*
X192155158Y-102465000D01*
X189015006Y-99324848D01*
X189484089Y-99325257D01*
X189541413Y-99301571D01*
X192044921Y-101805079D01*
X192299593Y-101975245D01*
X192600000Y-102035000D01*
X206962494Y-102035000D01*
X206969673Y-102042192D01*
X207313201Y-102184838D01*
X207685167Y-102185162D01*
X208028943Y-102043117D01*
X208292192Y-101780327D01*
X208434838Y-101436799D01*
X208435162Y-101064833D01*
X208293117Y-100721057D01*
X208030327Y-100457808D01*
X207686799Y-100315162D01*
X207314833Y-100314838D01*
X206971057Y-100456883D01*
X206962926Y-100465000D01*
X205319318Y-100465000D01*
X205434838Y-100186799D01*
X205435162Y-99814833D01*
X205293117Y-99471057D01*
X205030327Y-99207808D01*
X204686799Y-99065162D01*
X204314833Y-99064838D01*
X203971057Y-99206883D01*
X203962926Y-99215000D01*
X203600932Y-99215000D01*
X203880086Y-99099656D01*
X204298188Y-98682283D01*
X204425032Y-98376808D01*
X204550344Y-98680086D01*
X204967717Y-99098188D01*
X205513319Y-99324742D01*
X206104089Y-99325257D01*
X206650086Y-99099656D01*
X207068188Y-98682283D01*
X207195032Y-98376808D01*
X207320344Y-98680086D01*
X207737717Y-99098188D01*
X208283319Y-99324742D01*
X208874089Y-99325257D01*
X209420086Y-99099656D01*
X209838188Y-98682283D01*
X209965032Y-98376808D01*
X210090344Y-98680086D01*
X210507717Y-99098188D01*
X211053319Y-99324742D01*
X211644089Y-99325257D01*
X212190086Y-99099656D01*
X212608188Y-98682283D01*
X212735032Y-98376808D01*
X212860344Y-98680086D01*
X213277717Y-99098188D01*
X213823319Y-99324742D01*
X214414089Y-99325257D01*
X214960086Y-99099656D01*
X215378188Y-98682283D01*
X215464065Y-98475467D01*
X219174138Y-98475467D01*
X219425375Y-98872169D01*
X220487446Y-99307227D01*
X221635162Y-99302730D01*
X222674625Y-98872169D01*
X222925862Y-98475467D01*
X221050000Y-96599605D01*
X219174138Y-98475467D01*
X215464065Y-98475467D01*
X215604742Y-98136681D01*
X215605257Y-97545911D01*
X215379656Y-96999914D01*
X214962283Y-96581812D01*
X214416681Y-96355258D01*
X213825911Y-96354743D01*
X213279914Y-96580344D01*
X212861812Y-96997717D01*
X212734968Y-97303192D01*
X212609656Y-96999914D01*
X212192283Y-96581812D01*
X211646681Y-96355258D01*
X211055911Y-96354743D01*
X210509914Y-96580344D01*
X210091812Y-96997717D01*
X209964968Y-97303192D01*
X209839656Y-96999914D01*
X209422283Y-96581812D01*
X208876681Y-96355258D01*
X208285911Y-96354743D01*
X207739914Y-96580344D01*
X207321812Y-96997717D01*
X207194968Y-97303192D01*
X207069656Y-96999914D01*
X206652283Y-96581812D01*
X206106681Y-96355258D01*
X205515911Y-96354743D01*
X204969914Y-96580344D01*
X204551812Y-96997717D01*
X204424968Y-97303192D01*
X204299656Y-96999914D01*
X203882283Y-96581812D01*
X203336681Y-96355258D01*
X202745911Y-96354743D01*
X202199914Y-96580344D01*
X201781812Y-96997717D01*
X201654968Y-97303192D01*
X201529656Y-96999914D01*
X201112283Y-96581812D01*
X200566681Y-96355258D01*
X199975911Y-96354743D01*
X199429914Y-96580344D01*
X199011812Y-96997717D01*
X198884968Y-97303192D01*
X198759656Y-96999914D01*
X198342283Y-96581812D01*
X197796681Y-96355258D01*
X197205911Y-96354743D01*
X196659914Y-96580344D01*
X196241812Y-96997717D01*
X196114968Y-97303192D01*
X195989656Y-96999914D01*
X195572283Y-96581812D01*
X195026681Y-96355258D01*
X194435911Y-96354743D01*
X193889914Y-96580344D01*
X193471812Y-96997717D01*
X193344968Y-97303192D01*
X193219656Y-96999914D01*
X192802283Y-96581812D01*
X192256681Y-96355258D01*
X191665911Y-96354743D01*
X191119914Y-96580344D01*
X190701812Y-96997717D01*
X190574968Y-97303192D01*
X190449656Y-96999914D01*
X190032283Y-96581812D01*
X189486681Y-96355258D01*
X188895911Y-96354743D01*
X188349914Y-96580344D01*
X187931812Y-96997717D01*
X187804968Y-97303192D01*
X187679656Y-96999914D01*
X187262283Y-96581812D01*
X186716681Y-96355258D01*
X186125911Y-96354743D01*
X185579914Y-96580344D01*
X185161812Y-96997717D01*
X185034968Y-97303192D01*
X184909656Y-96999914D01*
X184492283Y-96581812D01*
X183946681Y-96355258D01*
X183355911Y-96354743D01*
X182809914Y-96580344D01*
X182391812Y-96997717D01*
X182264968Y-97303192D01*
X182139656Y-96999914D01*
X181722283Y-96581812D01*
X181176681Y-96355258D01*
X180585911Y-96354743D01*
X180039914Y-96580344D01*
X179621812Y-96997717D01*
X179395258Y-97543319D01*
X179394743Y-98134089D01*
X176260905Y-98134089D01*
X176402169Y-98044625D01*
X176837227Y-96982554D01*
X176832730Y-95834838D01*
X176608744Y-95294089D01*
X180779743Y-95294089D01*
X181005344Y-95840086D01*
X181422717Y-96258188D01*
X181968319Y-96484742D01*
X182559089Y-96485257D01*
X183105086Y-96259656D01*
X183523188Y-95842283D01*
X183650032Y-95536808D01*
X183775344Y-95840086D01*
X184192717Y-96258188D01*
X184738319Y-96484742D01*
X185329089Y-96485257D01*
X185875086Y-96259656D01*
X186293188Y-95842283D01*
X186420032Y-95536808D01*
X186545344Y-95840086D01*
X186962717Y-96258188D01*
X187508319Y-96484742D01*
X188099089Y-96485257D01*
X188645086Y-96259656D01*
X188861160Y-96043958D01*
X189710647Y-96043958D01*
X189790920Y-96295259D01*
X190346279Y-96496718D01*
X190936458Y-96470315D01*
X191359080Y-96295259D01*
X191439353Y-96043958D01*
X192480647Y-96043958D01*
X192560920Y-96295259D01*
X193116279Y-96496718D01*
X193706458Y-96470315D01*
X194129080Y-96295259D01*
X194209353Y-96043958D01*
X195250647Y-96043958D01*
X195330920Y-96295259D01*
X195886279Y-96496718D01*
X196476458Y-96470315D01*
X196899080Y-96295259D01*
X196979353Y-96043958D01*
X198020647Y-96043958D01*
X198100920Y-96295259D01*
X198656279Y-96496718D01*
X199246458Y-96470315D01*
X199669080Y-96295259D01*
X199749353Y-96043958D01*
X200790647Y-96043958D01*
X200870920Y-96295259D01*
X201426279Y-96496718D01*
X202016458Y-96470315D01*
X202439080Y-96295259D01*
X202519353Y-96043958D01*
X203560647Y-96043958D01*
X203640920Y-96295259D01*
X204196279Y-96496718D01*
X204786458Y-96470315D01*
X205209080Y-96295259D01*
X205289353Y-96043958D01*
X204425000Y-95179605D01*
X203560647Y-96043958D01*
X202519353Y-96043958D01*
X201655000Y-95179605D01*
X200790647Y-96043958D01*
X199749353Y-96043958D01*
X198885000Y-95179605D01*
X198020647Y-96043958D01*
X196979353Y-96043958D01*
X196115000Y-95179605D01*
X195250647Y-96043958D01*
X194209353Y-96043958D01*
X193345000Y-95179605D01*
X192480647Y-96043958D01*
X191439353Y-96043958D01*
X190575000Y-95179605D01*
X189710647Y-96043958D01*
X188861160Y-96043958D01*
X189063188Y-95842283D01*
X189183667Y-95552137D01*
X189279741Y-95784080D01*
X189531042Y-95864353D01*
X190395395Y-95000000D01*
X190754605Y-95000000D01*
X191618958Y-95864353D01*
X191870259Y-95784080D01*
X191954056Y-95553077D01*
X192049741Y-95784080D01*
X192301042Y-95864353D01*
X193165395Y-95000000D01*
X193524605Y-95000000D01*
X194388958Y-95864353D01*
X194640259Y-95784080D01*
X194724056Y-95553077D01*
X194819741Y-95784080D01*
X195071042Y-95864353D01*
X195935395Y-95000000D01*
X196294605Y-95000000D01*
X197158958Y-95864353D01*
X197410259Y-95784080D01*
X197494056Y-95553077D01*
X197589741Y-95784080D01*
X197841042Y-95864353D01*
X198705395Y-95000000D01*
X199064605Y-95000000D01*
X199928958Y-95864353D01*
X200180259Y-95784080D01*
X200264056Y-95553077D01*
X200359741Y-95784080D01*
X200611042Y-95864353D01*
X201475395Y-95000000D01*
X201834605Y-95000000D01*
X202698958Y-95864353D01*
X202950259Y-95784080D01*
X203034056Y-95553077D01*
X203129741Y-95784080D01*
X203381042Y-95864353D01*
X204245395Y-95000000D01*
X204604605Y-95000000D01*
X205468958Y-95864353D01*
X205720259Y-95784080D01*
X205809993Y-95536712D01*
X205935344Y-95840086D01*
X206352717Y-96258188D01*
X206898319Y-96484742D01*
X207489089Y-96485257D01*
X208035086Y-96259656D01*
X208453188Y-95842283D01*
X208580032Y-95536808D01*
X208705344Y-95840086D01*
X209122717Y-96258188D01*
X209668319Y-96484742D01*
X210259089Y-96485257D01*
X210805086Y-96259656D01*
X211223188Y-95842283D01*
X211350032Y-95536808D01*
X211475344Y-95840086D01*
X211892717Y-96258188D01*
X212438319Y-96484742D01*
X213029089Y-96485257D01*
X213575086Y-96259656D01*
X213977998Y-95857446D01*
X218162773Y-95857446D01*
X218167270Y-97005162D01*
X218597831Y-98044625D01*
X218994533Y-98295862D01*
X220870395Y-96420000D01*
X221229605Y-96420000D01*
X223105467Y-98295862D01*
X223502169Y-98044625D01*
X223937227Y-96982554D01*
X223932730Y-95834838D01*
X223502169Y-94795375D01*
X223105467Y-94544138D01*
X221229605Y-96420000D01*
X220870395Y-96420000D01*
X218994533Y-94544138D01*
X218597831Y-94795375D01*
X218162773Y-95857446D01*
X213977998Y-95857446D01*
X213993188Y-95842283D01*
X214219742Y-95296681D01*
X214220257Y-94705911D01*
X214079203Y-94364533D01*
X219174138Y-94364533D01*
X221050000Y-96240395D01*
X222925862Y-94364533D01*
X222674625Y-93967831D01*
X221612554Y-93532773D01*
X220464838Y-93537270D01*
X219425375Y-93967831D01*
X219174138Y-94364533D01*
X214079203Y-94364533D01*
X213994656Y-94159914D01*
X213577283Y-93741812D01*
X213031681Y-93515258D01*
X212440911Y-93514743D01*
X211894914Y-93740344D01*
X211476812Y-94157717D01*
X211349968Y-94463192D01*
X211224656Y-94159914D01*
X210807283Y-93741812D01*
X210261681Y-93515258D01*
X209670911Y-93514743D01*
X209124914Y-93740344D01*
X208706812Y-94157717D01*
X208579968Y-94463192D01*
X208454656Y-94159914D01*
X208037283Y-93741812D01*
X207491681Y-93515258D01*
X206900911Y-93514743D01*
X206354914Y-93740344D01*
X205936812Y-94157717D01*
X205816333Y-94447863D01*
X205720259Y-94215920D01*
X205468958Y-94135647D01*
X204604605Y-95000000D01*
X204245395Y-95000000D01*
X203381042Y-94135647D01*
X203129741Y-94215920D01*
X203045944Y-94446923D01*
X202950259Y-94215920D01*
X202698958Y-94135647D01*
X201834605Y-95000000D01*
X201475395Y-95000000D01*
X200611042Y-94135647D01*
X200359741Y-94215920D01*
X200275944Y-94446923D01*
X200180259Y-94215920D01*
X199928958Y-94135647D01*
X199064605Y-95000000D01*
X198705395Y-95000000D01*
X197841042Y-94135647D01*
X197589741Y-94215920D01*
X197505944Y-94446923D01*
X197410259Y-94215920D01*
X197158958Y-94135647D01*
X196294605Y-95000000D01*
X195935395Y-95000000D01*
X195071042Y-94135647D01*
X194819741Y-94215920D01*
X194735944Y-94446923D01*
X194640259Y-94215920D01*
X194388958Y-94135647D01*
X193524605Y-95000000D01*
X193165395Y-95000000D01*
X192301042Y-94135647D01*
X192049741Y-94215920D01*
X191965944Y-94446923D01*
X191870259Y-94215920D01*
X191618958Y-94135647D01*
X190754605Y-95000000D01*
X190395395Y-95000000D01*
X189531042Y-94135647D01*
X189279741Y-94215920D01*
X189190007Y-94463288D01*
X189064656Y-94159914D01*
X188861140Y-93956042D01*
X189710647Y-93956042D01*
X190575000Y-94820395D01*
X191439353Y-93956042D01*
X192480647Y-93956042D01*
X193345000Y-94820395D01*
X194209353Y-93956042D01*
X195250647Y-93956042D01*
X196115000Y-94820395D01*
X196979353Y-93956042D01*
X198020647Y-93956042D01*
X198885000Y-94820395D01*
X199749353Y-93956042D01*
X200790647Y-93956042D01*
X201655000Y-94820395D01*
X202519353Y-93956042D01*
X203560647Y-93956042D01*
X204425000Y-94820395D01*
X205289353Y-93956042D01*
X205209080Y-93704741D01*
X204653721Y-93503282D01*
X204063542Y-93529685D01*
X203640920Y-93704741D01*
X203560647Y-93956042D01*
X202519353Y-93956042D01*
X202439080Y-93704741D01*
X201883721Y-93503282D01*
X201293542Y-93529685D01*
X200870920Y-93704741D01*
X200790647Y-93956042D01*
X199749353Y-93956042D01*
X199669080Y-93704741D01*
X199113721Y-93503282D01*
X198523542Y-93529685D01*
X198100920Y-93704741D01*
X198020647Y-93956042D01*
X196979353Y-93956042D01*
X196899080Y-93704741D01*
X196343721Y-93503282D01*
X195753542Y-93529685D01*
X195330920Y-93704741D01*
X195250647Y-93956042D01*
X194209353Y-93956042D01*
X194129080Y-93704741D01*
X193573721Y-93503282D01*
X192983542Y-93529685D01*
X192560920Y-93704741D01*
X192480647Y-93956042D01*
X191439353Y-93956042D01*
X191359080Y-93704741D01*
X190803721Y-93503282D01*
X190213542Y-93529685D01*
X189790920Y-93704741D01*
X189710647Y-93956042D01*
X188861140Y-93956042D01*
X188647283Y-93741812D01*
X188101681Y-93515258D01*
X187510911Y-93514743D01*
X186964914Y-93740344D01*
X186546812Y-94157717D01*
X186419968Y-94463192D01*
X186294656Y-94159914D01*
X185877283Y-93741812D01*
X185331681Y-93515258D01*
X184740911Y-93514743D01*
X184194914Y-93740344D01*
X183776812Y-94157717D01*
X183649968Y-94463192D01*
X183524656Y-94159914D01*
X183107283Y-93741812D01*
X182561681Y-93515258D01*
X181970911Y-93514743D01*
X181424914Y-93740344D01*
X181006812Y-94157717D01*
X180780258Y-94703319D01*
X180779743Y-95294089D01*
X176608744Y-95294089D01*
X176402169Y-94795375D01*
X176005467Y-94544138D01*
X174129605Y-96420000D01*
X173770395Y-96420000D01*
X171894533Y-94544138D01*
X171497831Y-94795375D01*
X171062773Y-95857446D01*
X170127000Y-95857446D01*
X170127000Y-94364533D01*
X172074138Y-94364533D01*
X173950000Y-96240395D01*
X175825862Y-94364533D01*
X175574625Y-93967831D01*
X174512554Y-93532773D01*
X173364838Y-93537270D01*
X172325375Y-93967831D01*
X172074138Y-94364533D01*
X170127000Y-94364533D01*
X170127000Y-87627000D01*
X224873000Y-87627000D01*
X224873000Y-123873000D01*
X224873000Y-123873000D01*
G37*
X224873000Y-123873000D02*
X170127000Y-123873000D01*
X170127000Y-117000000D01*
X171485907Y-117000000D01*
X171598946Y-117568285D01*
X171920853Y-118050054D01*
X171962452Y-118077850D01*
X171914683Y-118086838D01*
X171698559Y-118225910D01*
X171553569Y-118438110D01*
X171502560Y-118690000D01*
X171502560Y-120390000D01*
X171546838Y-120625317D01*
X171685910Y-120841441D01*
X171898110Y-120986431D01*
X172150000Y-121037440D01*
X173850000Y-121037440D01*
X174085317Y-120993162D01*
X174301441Y-120854090D01*
X174446431Y-120641890D01*
X174497440Y-120390000D01*
X174497440Y-118690000D01*
X174453162Y-118454683D01*
X174314090Y-118238559D01*
X174101890Y-118093569D01*
X174034459Y-118079914D01*
X174079147Y-118050054D01*
X174401054Y-117568285D01*
X174514093Y-117000000D01*
X174401054Y-116431715D01*
X174079147Y-115949946D01*
X173738447Y-115722298D01*
X173881358Y-115655183D01*
X174271645Y-115226924D01*
X174441476Y-114816890D01*
X174371962Y-114685167D01*
X178564838Y-114685167D01*
X178706883Y-115028943D01*
X178969673Y-115292192D01*
X179313201Y-115434838D01*
X179685167Y-115435162D01*
X179699204Y-115429362D01*
X184772560Y-120502718D01*
X184772560Y-122440000D01*
X184816838Y-122675317D01*
X184955910Y-122891441D01*
X185168110Y-123036431D01*
X185420000Y-123087440D01*
X187020000Y-123087440D01*
X187255317Y-123043162D01*
X187471441Y-122904090D01*
X187616431Y-122691890D01*
X187646597Y-122542926D01*
X187745302Y-122690648D01*
X188210849Y-123001717D01*
X188760000Y-123110950D01*
X189309151Y-123001717D01*
X189774698Y-122690648D01*
X190030000Y-122308562D01*
X190285302Y-122690648D01*
X190750849Y-123001717D01*
X191300000Y-123110950D01*
X191849151Y-123001717D01*
X192314698Y-122690648D01*
X192567507Y-122312293D01*
X192915104Y-122744500D01*
X193408181Y-123014367D01*
X193490961Y-123031904D01*
X193713000Y-122909915D01*
X193713000Y-121367000D01*
X193693000Y-121367000D01*
X193693000Y-121113000D01*
X193713000Y-121113000D01*
X193713000Y-119570085D01*
X193967000Y-119570085D01*
X193967000Y-121113000D01*
X193987000Y-121113000D01*
X193987000Y-121367000D01*
X193967000Y-121367000D01*
X193967000Y-122909915D01*
X194189039Y-123031904D01*
X194271819Y-123014367D01*
X194764896Y-122744500D01*
X195112493Y-122312293D01*
X195365302Y-122690648D01*
X195830849Y-123001717D01*
X196380000Y-123110950D01*
X196929151Y-123001717D01*
X197394698Y-122690648D01*
X197650000Y-122308562D01*
X197905302Y-122690648D01*
X198370849Y-123001717D01*
X198920000Y-123110950D01*
X199469151Y-123001717D01*
X199934698Y-122690648D01*
X200190000Y-122308562D01*
X200445302Y-122690648D01*
X200910849Y-123001717D01*
X201460000Y-123110950D01*
X202009151Y-123001717D01*
X202474698Y-122690648D01*
X202730000Y-122308562D01*
X202985302Y-122690648D01*
X203450849Y-123001717D01*
X204000000Y-123110950D01*
X204549151Y-123001717D01*
X205014698Y-122690648D01*
X205270000Y-122308562D01*
X205525302Y-122690648D01*
X205990849Y-123001717D01*
X206540000Y-123110950D01*
X207089151Y-123001717D01*
X207554698Y-122690648D01*
X207810000Y-122308562D01*
X208065302Y-122690648D01*
X208530849Y-123001717D01*
X209080000Y-123110950D01*
X209629151Y-123001717D01*
X210094698Y-122690648D01*
X210350000Y-122308562D01*
X210605302Y-122690648D01*
X211070849Y-123001717D01*
X211620000Y-123110950D01*
X212169151Y-123001717D01*
X212634698Y-122690648D01*
X212890000Y-122308562D01*
X213145302Y-122690648D01*
X213610849Y-123001717D01*
X214160000Y-123110950D01*
X214709151Y-123001717D01*
X215174698Y-122690648D01*
X215430000Y-122308562D01*
X215685302Y-122690648D01*
X216150849Y-123001717D01*
X216700000Y-123110950D01*
X217249151Y-123001717D01*
X217714698Y-122690648D01*
X217970000Y-122308562D01*
X218225302Y-122690648D01*
X218690849Y-123001717D01*
X219240000Y-123110950D01*
X219789151Y-123001717D01*
X220254698Y-122690648D01*
X220510000Y-122308562D01*
X220765302Y-122690648D01*
X221230849Y-123001717D01*
X221780000Y-123110950D01*
X222329151Y-123001717D01*
X222794698Y-122690648D01*
X223105767Y-122225101D01*
X223215000Y-121675950D01*
X223215000Y-120804050D01*
X223105767Y-120254899D01*
X222794698Y-119789352D01*
X222329151Y-119478283D01*
X221780000Y-119369050D01*
X221230849Y-119478283D01*
X220765302Y-119789352D01*
X220510000Y-120171438D01*
X220254698Y-119789352D01*
X219789151Y-119478283D01*
X219240000Y-119369050D01*
X218690849Y-119478283D01*
X218225302Y-119789352D01*
X217970000Y-120171438D01*
X217714698Y-119789352D01*
X217249151Y-119478283D01*
X216700000Y-119369050D01*
X216150849Y-119478283D01*
X215685302Y-119789352D01*
X215430000Y-120171438D01*
X215174698Y-119789352D01*
X214709151Y-119478283D01*
X214160000Y-119369050D01*
X213610849Y-119478283D01*
X213145302Y-119789352D01*
X212890000Y-120171438D01*
X212634698Y-119789352D01*
X212169151Y-119478283D01*
X211620000Y-119369050D01*
X211070849Y-119478283D01*
X210605302Y-119789352D01*
X210350000Y-120171438D01*
X210094698Y-119789352D01*
X209629151Y-119478283D01*
X209080000Y-119369050D01*
X208530849Y-119478283D01*
X208065302Y-119789352D01*
X207810000Y-120171438D01*
X207554698Y-119789352D01*
X207089151Y-119478283D01*
X206540000Y-119369050D01*
X205990849Y-119478283D01*
X205525302Y-119789352D01*
X205270000Y-120171438D01*
X205014698Y-119789352D01*
X204549151Y-119478283D01*
X204000000Y-119369050D01*
X203450849Y-119478283D01*
X202985302Y-119789352D01*
X202730000Y-120171438D01*
X202474698Y-119789352D01*
X202009151Y-119478283D01*
X201460000Y-119369050D01*
X200910849Y-119478283D01*
X200445302Y-119789352D01*
X200190000Y-120171438D01*
X199934698Y-119789352D01*
X199469151Y-119478283D01*
X198920000Y-119369050D01*
X198370849Y-119478283D01*
X197905302Y-119789352D01*
X197650000Y-120171438D01*
X197394698Y-119789352D01*
X196929151Y-119478283D01*
X196380000Y-119369050D01*
X195830849Y-119478283D01*
X195365302Y-119789352D01*
X195112493Y-120167707D01*
X194764896Y-119735500D01*
X194271819Y-119465633D01*
X194189039Y-119448096D01*
X193967000Y-119570085D01*
X193713000Y-119570085D01*
X193490961Y-119448096D01*
X193408181Y-119465633D01*
X192915104Y-119735500D01*
X192567507Y-120167707D01*
X192314698Y-119789352D01*
X191849151Y-119478283D01*
X191300000Y-119369050D01*
X190750849Y-119478283D01*
X190285302Y-119789352D01*
X190030000Y-120171438D01*
X189774698Y-119789352D01*
X189309151Y-119478283D01*
X188760000Y-119369050D01*
X188210849Y-119478283D01*
X187745302Y-119789352D01*
X187647749Y-119935350D01*
X187623162Y-119804683D01*
X187484090Y-119588559D01*
X187271890Y-119443569D01*
X187020000Y-119392560D01*
X185882718Y-119392560D01*
X180435079Y-113944921D01*
X180180407Y-113774755D01*
X180076531Y-113754093D01*
X180030327Y-113707808D01*
X179686799Y-113565162D01*
X179314833Y-113564838D01*
X178971057Y-113706883D01*
X178707808Y-113969673D01*
X178565162Y-114313201D01*
X178564838Y-114685167D01*
X174371962Y-114685167D01*
X174320155Y-114587000D01*
X173127000Y-114587000D01*
X173127000Y-114607000D01*
X172873000Y-114607000D01*
X172873000Y-114587000D01*
X171679845Y-114587000D01*
X171558524Y-114816890D01*
X171728355Y-115226924D01*
X172118642Y-115655183D01*
X172261553Y-115722298D01*
X171920853Y-115949946D01*
X171598946Y-116431715D01*
X171485907Y-117000000D01*
X170127000Y-117000000D01*
X170127000Y-114103110D01*
X171558524Y-114103110D01*
X171679845Y-114333000D01*
X172873000Y-114333000D01*
X172873000Y-113139181D01*
X173127000Y-113139181D01*
X173127000Y-114333000D01*
X174320155Y-114333000D01*
X174441476Y-114103110D01*
X174271645Y-113693076D01*
X173881358Y-113264817D01*
X173356892Y-113018514D01*
X173127000Y-113139181D01*
X172873000Y-113139181D01*
X172643108Y-113018514D01*
X172118642Y-113264817D01*
X171728355Y-113693076D01*
X171558524Y-114103110D01*
X170127000Y-114103110D01*
X170127000Y-109396890D01*
X171558524Y-109396890D01*
X171728355Y-109806924D01*
X172118642Y-110235183D01*
X172643108Y-110481486D01*
X172873000Y-110360819D01*
X172873000Y-109167000D01*
X173127000Y-109167000D01*
X173127000Y-110360819D01*
X173356892Y-110481486D01*
X173881358Y-110235183D01*
X174271645Y-109806924D01*
X174441476Y-109396890D01*
X174320155Y-109167000D01*
X173127000Y-109167000D01*
X172873000Y-109167000D01*
X171679845Y-109167000D01*
X171558524Y-109396890D01*
X170127000Y-109396890D01*
X170127000Y-106500000D01*
X171485907Y-106500000D01*
X171598946Y-107068285D01*
X171920853Y-107550054D01*
X172261553Y-107777702D01*
X172118642Y-107844817D01*
X171728355Y-108273076D01*
X171558524Y-108683110D01*
X171679845Y-108913000D01*
X172873000Y-108913000D01*
X172873000Y-108893000D01*
X173127000Y-108893000D01*
X173127000Y-108913000D01*
X174320155Y-108913000D01*
X174441476Y-108683110D01*
X174271645Y-108273076D01*
X173881358Y-107844817D01*
X173738447Y-107777702D01*
X174079147Y-107550054D01*
X174401054Y-107068285D01*
X174514093Y-106500000D01*
X174401054Y-105931715D01*
X174155389Y-105564050D01*
X184785000Y-105564050D01*
X184785000Y-106435950D01*
X184894233Y-106985101D01*
X185205302Y-107450648D01*
X185670849Y-107761717D01*
X186220000Y-107870950D01*
X186769151Y-107761717D01*
X187234698Y-107450648D01*
X187487507Y-107072293D01*
X187835104Y-107504500D01*
X188328181Y-107774367D01*
X188410961Y-107791904D01*
X188633000Y-107669915D01*
X188633000Y-106127000D01*
X188613000Y-106127000D01*
X188613000Y-105873000D01*
X188633000Y-105873000D01*
X188633000Y-104330085D01*
X188887000Y-104330085D01*
X188887000Y-105873000D01*
X188907000Y-105873000D01*
X188907000Y-106127000D01*
X188887000Y-106127000D01*
X188887000Y-107669915D01*
X189109039Y-107791904D01*
X189191819Y-107774367D01*
X189684896Y-107504500D01*
X190032493Y-107072293D01*
X190285302Y-107450648D01*
X190750849Y-107761717D01*
X191300000Y-107870950D01*
X191849151Y-107761717D01*
X192314698Y-107450648D01*
X192570000Y-107068562D01*
X192825302Y-107450648D01*
X193290849Y-107761717D01*
X193840000Y-107870950D01*
X194389151Y-107761717D01*
X194854698Y-107450648D01*
X195110000Y-107068562D01*
X195365302Y-107450648D01*
X195830849Y-107761717D01*
X196380000Y-107870950D01*
X196929151Y-107761717D01*
X197394698Y-107450648D01*
X197650000Y-107068562D01*
X197905302Y-107450648D01*
X198370849Y-107761717D01*
X198920000Y-107870950D01*
X199469151Y-107761717D01*
X199934698Y-107450648D01*
X200190000Y-107068562D01*
X200445302Y-107450648D01*
X200910849Y-107761717D01*
X201460000Y-107870950D01*
X202009151Y-107761717D01*
X202474698Y-107450648D01*
X202730000Y-107068562D01*
X202985302Y-107450648D01*
X203450849Y-107761717D01*
X204000000Y-107870950D01*
X204549151Y-107761717D01*
X205014698Y-107450648D01*
X205270000Y-107068562D01*
X205525302Y-107450648D01*
X205990849Y-107761717D01*
X206540000Y-107870950D01*
X207089151Y-107761717D01*
X207554698Y-107450648D01*
X207810000Y-107068562D01*
X208065302Y-107450648D01*
X208530849Y-107761717D01*
X209080000Y-107870950D01*
X209629151Y-107761717D01*
X210094698Y-107450648D01*
X210350000Y-107068562D01*
X210605302Y-107450648D01*
X211070849Y-107761717D01*
X211620000Y-107870950D01*
X212169151Y-107761717D01*
X212634698Y-107450648D01*
X212890000Y-107068562D01*
X213145302Y-107450648D01*
X213610849Y-107761717D01*
X214160000Y-107870950D01*
X214709151Y-107761717D01*
X215174698Y-107450648D01*
X215430000Y-107068562D01*
X215685302Y-107450648D01*
X216150849Y-107761717D01*
X216700000Y-107870950D01*
X217249151Y-107761717D01*
X217714698Y-107450648D01*
X217970000Y-107068562D01*
X218225302Y-107450648D01*
X218690849Y-107761717D01*
X219240000Y-107870950D01*
X219789151Y-107761717D01*
X220254698Y-107450648D01*
X220510000Y-107068562D01*
X220765302Y-107450648D01*
X221230849Y-107761717D01*
X221780000Y-107870950D01*
X222329151Y-107761717D01*
X222794698Y-107450648D01*
X223105767Y-106985101D01*
X223215000Y-106435950D01*
X223215000Y-105564050D01*
X223105767Y-105014899D01*
X222794698Y-104549352D01*
X222329151Y-104238283D01*
X221780000Y-104129050D01*
X221230849Y-104238283D01*
X220765302Y-104549352D01*
X220510000Y-104931438D01*
X220254698Y-104549352D01*
X219789151Y-104238283D01*
X219240000Y-104129050D01*
X218690849Y-104238283D01*
X218225302Y-104549352D01*
X217970000Y-104931438D01*
X217714698Y-104549352D01*
X217249151Y-104238283D01*
X216700000Y-104129050D01*
X216150849Y-104238283D01*
X215685302Y-104549352D01*
X215430000Y-104931438D01*
X215174698Y-104549352D01*
X214709151Y-104238283D01*
X214160000Y-104129050D01*
X213610849Y-104238283D01*
X213145302Y-104549352D01*
X212890000Y-104931438D01*
X212634698Y-104549352D01*
X212169151Y-104238283D01*
X211620000Y-104129050D01*
X211070849Y-104238283D01*
X210605302Y-104549352D01*
X210350000Y-104931438D01*
X210094698Y-104549352D01*
X209629151Y-104238283D01*
X209080000Y-104129050D01*
X208530849Y-104238283D01*
X208065302Y-104549352D01*
X207810000Y-104931438D01*
X207554698Y-104549352D01*
X207089151Y-104238283D01*
X206540000Y-104129050D01*
X205990849Y-104238283D01*
X205525302Y-104549352D01*
X205270000Y-104931438D01*
X205014698Y-104549352D01*
X204549151Y-104238283D01*
X204000000Y-104129050D01*
X203450849Y-104238283D01*
X202985302Y-104549352D01*
X202730000Y-104931438D01*
X202474698Y-104549352D01*
X202009151Y-104238283D01*
X201460000Y-104129050D01*
X200910849Y-104238283D01*
X200445302Y-104549352D01*
X200190000Y-104931438D01*
X199934698Y-104549352D01*
X199469151Y-104238283D01*
X198920000Y-104129050D01*
X198370849Y-104238283D01*
X197905302Y-104549352D01*
X197650000Y-104931438D01*
X197394698Y-104549352D01*
X196929151Y-104238283D01*
X196380000Y-104129050D01*
X195830849Y-104238283D01*
X195365302Y-104549352D01*
X195110000Y-104931438D01*
X194854698Y-104549352D01*
X194389151Y-104238283D01*
X193840000Y-104129050D01*
X193290849Y-104238283D01*
X192825302Y-104549352D01*
X192570000Y-104931438D01*
X192314698Y-104549352D01*
X191849151Y-104238283D01*
X191300000Y-104129050D01*
X190750849Y-104238283D01*
X190285302Y-104549352D01*
X190032493Y-104927707D01*
X189684896Y-104495500D01*
X189191819Y-104225633D01*
X189109039Y-104208096D01*
X188887000Y-104330085D01*
X188633000Y-104330085D01*
X188410961Y-104208096D01*
X188328181Y-104225633D01*
X187835104Y-104495500D01*
X187487507Y-104927707D01*
X187234698Y-104549352D01*
X186769151Y-104238283D01*
X186220000Y-104129050D01*
X185670849Y-104238283D01*
X185205302Y-104549352D01*
X184894233Y-105014899D01*
X184785000Y-105564050D01*
X174155389Y-105564050D01*
X174079147Y-105449946D01*
X174037548Y-105422150D01*
X174085317Y-105413162D01*
X174301441Y-105274090D01*
X174446431Y-105061890D01*
X174497440Y-104810000D01*
X174497440Y-103110000D01*
X174453162Y-102874683D01*
X174314090Y-102658559D01*
X174101890Y-102513569D01*
X173850000Y-102462560D01*
X172150000Y-102462560D01*
X171914683Y-102506838D01*
X171698559Y-102645910D01*
X171553569Y-102858110D01*
X171502560Y-103110000D01*
X171502560Y-104810000D01*
X171546838Y-105045317D01*
X171685910Y-105261441D01*
X171898110Y-105406431D01*
X171965541Y-105420086D01*
X171920853Y-105449946D01*
X171598946Y-105931715D01*
X171485907Y-106500000D01*
X170127000Y-106500000D01*
X170127000Y-98475467D01*
X172074138Y-98475467D01*
X172325375Y-98872169D01*
X173387446Y-99307227D01*
X174535162Y-99302730D01*
X175574625Y-98872169D01*
X175825862Y-98475467D01*
X173950000Y-96599605D01*
X172074138Y-98475467D01*
X170127000Y-98475467D01*
X170127000Y-95857446D01*
X171062773Y-95857446D01*
X171067270Y-97005162D01*
X171497831Y-98044625D01*
X171894533Y-98295862D01*
X173770395Y-96420000D01*
X174129605Y-96420000D01*
X176005467Y-98295862D01*
X176260905Y-98134089D01*
X179394743Y-98134089D01*
X179620344Y-98680086D01*
X180037717Y-99098188D01*
X180583319Y-99324742D01*
X181174089Y-99325257D01*
X181720086Y-99099656D01*
X182138188Y-98682283D01*
X182265032Y-98376808D01*
X182390344Y-98680086D01*
X182807717Y-99098188D01*
X183353319Y-99324742D01*
X183944089Y-99325257D01*
X184490086Y-99099656D01*
X184908188Y-98682283D01*
X185035032Y-98376808D01*
X185160344Y-98680086D01*
X185577717Y-99098188D01*
X186123319Y-99324742D01*
X186714089Y-99325257D01*
X186771413Y-99301571D01*
X191274921Y-103805079D01*
X191529593Y-103975245D01*
X191830000Y-104035000D01*
X193962494Y-104035000D01*
X193969673Y-104042192D01*
X194313201Y-104184838D01*
X194685167Y-104185162D01*
X195028943Y-104043117D01*
X195292192Y-103780327D01*
X195434838Y-103436799D01*
X195435162Y-103064833D01*
X195293117Y-102721057D01*
X195030327Y-102457808D01*
X194686799Y-102315162D01*
X194314833Y-102314838D01*
X193971057Y-102456883D01*
X193962926Y-102465000D01*
X192155158Y-102465000D01*
X189015006Y-99324848D01*
X189484089Y-99325257D01*
X189541413Y-99301571D01*
X192044921Y-101805079D01*
X192299593Y-101975245D01*
X192600000Y-102035000D01*
X206962494Y-102035000D01*
X206969673Y-102042192D01*
X207313201Y-102184838D01*
X207685167Y-102185162D01*
X208028943Y-102043117D01*
X208292192Y-101780327D01*
X208434838Y-101436799D01*
X208435162Y-101064833D01*
X208293117Y-100721057D01*
X208030327Y-100457808D01*
X207686799Y-100315162D01*
X207314833Y-100314838D01*
X206971057Y-100456883D01*
X206962926Y-100465000D01*
X205319318Y-100465000D01*
X205434838Y-100186799D01*
X205435162Y-99814833D01*
X205293117Y-99471057D01*
X205030327Y-99207808D01*
X204686799Y-99065162D01*
X204314833Y-99064838D01*
X203971057Y-99206883D01*
X203962926Y-99215000D01*
X203600932Y-99215000D01*
X203880086Y-99099656D01*
X204298188Y-98682283D01*
X204425032Y-98376808D01*
X204550344Y-98680086D01*
X204967717Y-99098188D01*
X205513319Y-99324742D01*
X206104089Y-99325257D01*
X206650086Y-99099656D01*
X207068188Y-98682283D01*
X207195032Y-98376808D01*
X207320344Y-98680086D01*
X207737717Y-99098188D01*
X208283319Y-99324742D01*
X208874089Y-99325257D01*
X209420086Y-99099656D01*
X209838188Y-98682283D01*
X209965032Y-98376808D01*
X210090344Y-98680086D01*
X210507717Y-99098188D01*
X211053319Y-99324742D01*
X211644089Y-99325257D01*
X212190086Y-99099656D01*
X212608188Y-98682283D01*
X212735032Y-98376808D01*
X212860344Y-98680086D01*
X213277717Y-99098188D01*
X213823319Y-99324742D01*
X214414089Y-99325257D01*
X214960086Y-99099656D01*
X215378188Y-98682283D01*
X215464065Y-98475467D01*
X219174138Y-98475467D01*
X219425375Y-98872169D01*
X220487446Y-99307227D01*
X221635162Y-99302730D01*
X222674625Y-98872169D01*
X222925862Y-98475467D01*
X221050000Y-96599605D01*
X219174138Y-98475467D01*
X215464065Y-98475467D01*
X215604742Y-98136681D01*
X215605257Y-97545911D01*
X215379656Y-96999914D01*
X214962283Y-96581812D01*
X214416681Y-96355258D01*
X213825911Y-96354743D01*
X213279914Y-96580344D01*
X212861812Y-96997717D01*
X212734968Y-97303192D01*
X212609656Y-96999914D01*
X212192283Y-96581812D01*
X211646681Y-96355258D01*
X211055911Y-96354743D01*
X210509914Y-96580344D01*
X210091812Y-96997717D01*
X209964968Y-97303192D01*
X209839656Y-96999914D01*
X209422283Y-96581812D01*
X208876681Y-96355258D01*
X208285911Y-96354743D01*
X207739914Y-96580344D01*
X207321812Y-96997717D01*
X207194968Y-97303192D01*
X207069656Y-96999914D01*
X206652283Y-96581812D01*
X206106681Y-96355258D01*
X205515911Y-96354743D01*
X204969914Y-96580344D01*
X204551812Y-96997717D01*
X204424968Y-97303192D01*
X204299656Y-96999914D01*
X203882283Y-96581812D01*
X203336681Y-96355258D01*
X202745911Y-96354743D01*
X202199914Y-96580344D01*
X201781812Y-96997717D01*
X201654968Y-97303192D01*
X201529656Y-96999914D01*
X201112283Y-96581812D01*
X200566681Y-96355258D01*
X199975911Y-96354743D01*
X199429914Y-96580344D01*
X199011812Y-96997717D01*
X198884968Y-97303192D01*
X198759656Y-96999914D01*
X198342283Y-96581812D01*
X197796681Y-96355258D01*
X197205911Y-96354743D01*
X196659914Y-96580344D01*
X196241812Y-96997717D01*
X196114968Y-97303192D01*
X195989656Y-96999914D01*
X195572283Y-96581812D01*
X195026681Y-96355258D01*
X194435911Y-96354743D01*
X193889914Y-96580344D01*
X193471812Y-96997717D01*
X193344968Y-97303192D01*
X193219656Y-96999914D01*
X192802283Y-96581812D01*
X192256681Y-96355258D01*
X191665911Y-96354743D01*
X191119914Y-96580344D01*
X190701812Y-96997717D01*
X190574968Y-97303192D01*
X190449656Y-96999914D01*
X190032283Y-96581812D01*
X189486681Y-96355258D01*
X188895911Y-96354743D01*
X188349914Y-96580344D01*
X187931812Y-96997717D01*
X187804968Y-97303192D01*
X187679656Y-96999914D01*
X187262283Y-96581812D01*
X186716681Y-96355258D01*
X186125911Y-96354743D01*
X185579914Y-96580344D01*
X185161812Y-96997717D01*
X185034968Y-97303192D01*
X184909656Y-96999914D01*
X184492283Y-96581812D01*
X183946681Y-96355258D01*
X183355911Y-96354743D01*
X182809914Y-96580344D01*
X182391812Y-96997717D01*
X182264968Y-97303192D01*
X182139656Y-96999914D01*
X181722283Y-96581812D01*
X181176681Y-96355258D01*
X180585911Y-96354743D01*
X180039914Y-96580344D01*
X179621812Y-96997717D01*
X179395258Y-97543319D01*
X179394743Y-98134089D01*
X176260905Y-98134089D01*
X176402169Y-98044625D01*
X176837227Y-96982554D01*
X176832730Y-95834838D01*
X176608744Y-95294089D01*
X180779743Y-95294089D01*
X181005344Y-95840086D01*
X181422717Y-96258188D01*
X181968319Y-96484742D01*
X182559089Y-96485257D01*
X183105086Y-96259656D01*
X183523188Y-95842283D01*
X183650032Y-95536808D01*
X183775344Y-95840086D01*
X184192717Y-96258188D01*
X184738319Y-96484742D01*
X185329089Y-96485257D01*
X185875086Y-96259656D01*
X186293188Y-95842283D01*
X186420032Y-95536808D01*
X186545344Y-95840086D01*
X186962717Y-96258188D01*
X187508319Y-96484742D01*
X188099089Y-96485257D01*
X188645086Y-96259656D01*
X188861160Y-96043958D01*
X189710647Y-96043958D01*
X189790920Y-96295259D01*
X190346279Y-96496718D01*
X190936458Y-96470315D01*
X191359080Y-96295259D01*
X191439353Y-96043958D01*
X192480647Y-96043958D01*
X192560920Y-96295259D01*
X193116279Y-96496718D01*
X193706458Y-96470315D01*
X194129080Y-96295259D01*
X194209353Y-96043958D01*
X195250647Y-96043958D01*
X195330920Y-96295259D01*
X195886279Y-96496718D01*
X196476458Y-96470315D01*
X196899080Y-96295259D01*
X196979353Y-96043958D01*
X198020647Y-96043958D01*
X198100920Y-96295259D01*
X198656279Y-96496718D01*
X199246458Y-96470315D01*
X199669080Y-96295259D01*
X199749353Y-96043958D01*
X200790647Y-96043958D01*
X200870920Y-96295259D01*
X201426279Y-96496718D01*
X202016458Y-96470315D01*
X202439080Y-96295259D01*
X202519353Y-96043958D01*
X203560647Y-96043958D01*
X203640920Y-96295259D01*
X204196279Y-96496718D01*
X204786458Y-96470315D01*
X205209080Y-96295259D01*
X205289353Y-96043958D01*
X204425000Y-95179605D01*
X203560647Y-96043958D01*
X202519353Y-96043958D01*
X201655000Y-95179605D01*
X200790647Y-96043958D01*
X199749353Y-96043958D01*
X198885000Y-95179605D01*
X198020647Y-96043958D01*
X196979353Y-96043958D01*
X196115000Y-95179605D01*
X195250647Y-96043958D01*
X194209353Y-96043958D01*
X193345000Y-95179605D01*
X192480647Y-96043958D01*
X191439353Y-96043958D01*
X190575000Y-95179605D01*
X189710647Y-96043958D01*
X188861160Y-96043958D01*
X189063188Y-95842283D01*
X189183667Y-95552137D01*
X189279741Y-95784080D01*
X189531042Y-95864353D01*
X190395395Y-95000000D01*
X190754605Y-95000000D01*
X191618958Y-95864353D01*
X191870259Y-95784080D01*
X191954056Y-95553077D01*
X192049741Y-95784080D01*
X192301042Y-95864353D01*
X193165395Y-95000000D01*
X193524605Y-95000000D01*
X194388958Y-95864353D01*
X194640259Y-95784080D01*
X194724056Y-95553077D01*
X194819741Y-95784080D01*
X195071042Y-95864353D01*
X195935395Y-95000000D01*
X196294605Y-95000000D01*
X197158958Y-95864353D01*
X197410259Y-95784080D01*
X197494056Y-95553077D01*
X197589741Y-95784080D01*
X197841042Y-95864353D01*
X198705395Y-95000000D01*
X199064605Y-95000000D01*
X199928958Y-95864353D01*
X200180259Y-95784080D01*
X200264056Y-95553077D01*
X200359741Y-95784080D01*
X200611042Y-95864353D01*
X201475395Y-95000000D01*
X201834605Y-95000000D01*
X202698958Y-95864353D01*
X202950259Y-95784080D01*
X203034056Y-95553077D01*
X203129741Y-95784080D01*
X203381042Y-95864353D01*
X204245395Y-95000000D01*
X204604605Y-95000000D01*
X205468958Y-95864353D01*
X205720259Y-95784080D01*
X205809993Y-95536712D01*
X205935344Y-95840086D01*
X206352717Y-96258188D01*
X206898319Y-96484742D01*
X207489089Y-96485257D01*
X208035086Y-96259656D01*
X208453188Y-95842283D01*
X208580032Y-95536808D01*
X208705344Y-95840086D01*
X209122717Y-96258188D01*
X209668319Y-96484742D01*
X210259089Y-96485257D01*
X210805086Y-96259656D01*
X211223188Y-95842283D01*
X211350032Y-95536808D01*
X211475344Y-95840086D01*
X211892717Y-96258188D01*
X212438319Y-96484742D01*
X213029089Y-96485257D01*
X213575086Y-96259656D01*
X213977998Y-95857446D01*
X218162773Y-95857446D01*
X218167270Y-97005162D01*
X218597831Y-98044625D01*
X218994533Y-98295862D01*
X220870395Y-96420000D01*
X221229605Y-96420000D01*
X223105467Y-98295862D01*
X223502169Y-98044625D01*
X223937227Y-96982554D01*
X223932730Y-95834838D01*
X223502169Y-94795375D01*
X223105467Y-94544138D01*
X221229605Y-96420000D01*
X220870395Y-96420000D01*
X218994533Y-94544138D01*
X218597831Y-94795375D01*
X218162773Y-95857446D01*
X213977998Y-95857446D01*
X213993188Y-95842283D01*
X214219742Y-95296681D01*
X214220257Y-94705911D01*
X214079203Y-94364533D01*
X219174138Y-94364533D01*
X221050000Y-96240395D01*
X222925862Y-94364533D01*
X222674625Y-93967831D01*
X221612554Y-93532773D01*
X220464838Y-93537270D01*
X219425375Y-93967831D01*
X219174138Y-94364533D01*
X214079203Y-94364533D01*
X213994656Y-94159914D01*
X213577283Y-93741812D01*
X213031681Y-93515258D01*
X212440911Y-93514743D01*
X211894914Y-93740344D01*
X211476812Y-94157717D01*
X211349968Y-94463192D01*
X211224656Y-94159914D01*
X210807283Y-93741812D01*
X210261681Y-93515258D01*
X209670911Y-93514743D01*
X209124914Y-93740344D01*
X208706812Y-94157717D01*
X208579968Y-94463192D01*
X208454656Y-94159914D01*
X208037283Y-93741812D01*
X207491681Y-93515258D01*
X206900911Y-93514743D01*
X206354914Y-93740344D01*
X205936812Y-94157717D01*
X205816333Y-94447863D01*
X205720259Y-94215920D01*
X205468958Y-94135647D01*
X204604605Y-95000000D01*
X204245395Y-95000000D01*
X203381042Y-94135647D01*
X203129741Y-94215920D01*
X203045944Y-94446923D01*
X202950259Y-94215920D01*
X202698958Y-94135647D01*
X201834605Y-95000000D01*
X201475395Y-95000000D01*
X200611042Y-94135647D01*
X200359741Y-94215920D01*
X200275944Y-94446923D01*
X200180259Y-94215920D01*
X199928958Y-94135647D01*
X199064605Y-95000000D01*
X198705395Y-95000000D01*
X197841042Y-94135647D01*
X197589741Y-94215920D01*
X197505944Y-94446923D01*
X197410259Y-94215920D01*
X197158958Y-94135647D01*
X196294605Y-95000000D01*
X195935395Y-95000000D01*
X195071042Y-94135647D01*
X194819741Y-94215920D01*
X194735944Y-94446923D01*
X194640259Y-94215920D01*
X194388958Y-94135647D01*
X193524605Y-95000000D01*
X193165395Y-95000000D01*
X192301042Y-94135647D01*
X192049741Y-94215920D01*
X191965944Y-94446923D01*
X191870259Y-94215920D01*
X191618958Y-94135647D01*
X190754605Y-95000000D01*
X190395395Y-95000000D01*
X189531042Y-94135647D01*
X189279741Y-94215920D01*
X189190007Y-94463288D01*
X189064656Y-94159914D01*
X188861140Y-93956042D01*
X189710647Y-93956042D01*
X190575000Y-94820395D01*
X191439353Y-93956042D01*
X192480647Y-93956042D01*
X193345000Y-94820395D01*
X194209353Y-93956042D01*
X195250647Y-93956042D01*
X196115000Y-94820395D01*
X196979353Y-93956042D01*
X198020647Y-93956042D01*
X198885000Y-94820395D01*
X199749353Y-93956042D01*
X200790647Y-93956042D01*
X201655000Y-94820395D01*
X202519353Y-93956042D01*
X203560647Y-93956042D01*
X204425000Y-94820395D01*
X205289353Y-93956042D01*
X205209080Y-93704741D01*
X204653721Y-93503282D01*
X204063542Y-93529685D01*
X203640920Y-93704741D01*
X203560647Y-93956042D01*
X202519353Y-93956042D01*
X202439080Y-93704741D01*
X201883721Y-93503282D01*
X201293542Y-93529685D01*
X200870920Y-93704741D01*
X200790647Y-93956042D01*
X199749353Y-93956042D01*
X199669080Y-93704741D01*
X199113721Y-93503282D01*
X198523542Y-93529685D01*
X198100920Y-93704741D01*
X198020647Y-93956042D01*
X196979353Y-93956042D01*
X196899080Y-93704741D01*
X196343721Y-93503282D01*
X195753542Y-93529685D01*
X195330920Y-93704741D01*
X195250647Y-93956042D01*
X194209353Y-93956042D01*
X194129080Y-93704741D01*
X193573721Y-93503282D01*
X192983542Y-93529685D01*
X192560920Y-93704741D01*
X192480647Y-93956042D01*
X191439353Y-93956042D01*
X191359080Y-93704741D01*
X190803721Y-93503282D01*
X190213542Y-93529685D01*
X189790920Y-93704741D01*
X189710647Y-93956042D01*
X188861140Y-93956042D01*
X188647283Y-93741812D01*
X188101681Y-93515258D01*
X187510911Y-93514743D01*
X186964914Y-93740344D01*
X186546812Y-94157717D01*
X186419968Y-94463192D01*
X186294656Y-94159914D01*
X185877283Y-93741812D01*
X185331681Y-93515258D01*
X184740911Y-93514743D01*
X184194914Y-93740344D01*
X183776812Y-94157717D01*
X183649968Y-94463192D01*
X183524656Y-94159914D01*
X183107283Y-93741812D01*
X182561681Y-93515258D01*
X181970911Y-93514743D01*
X181424914Y-93740344D01*
X181006812Y-94157717D01*
X180780258Y-94703319D01*
X180779743Y-95294089D01*
X176608744Y-95294089D01*
X176402169Y-94795375D01*
X176005467Y-94544138D01*
X174129605Y-96420000D01*
X173770395Y-96420000D01*
X171894533Y-94544138D01*
X171497831Y-94795375D01*
X171062773Y-95857446D01*
X170127000Y-95857446D01*
X170127000Y-94364533D01*
X172074138Y-94364533D01*
X173950000Y-96240395D01*
X175825862Y-94364533D01*
X175574625Y-93967831D01*
X174512554Y-93532773D01*
X173364838Y-93537270D01*
X172325375Y-93967831D01*
X172074138Y-94364533D01*
X170127000Y-94364533D01*
X170127000Y-87627000D01*
X224873000Y-87627000D01*
X224873000Y-123873000D01*
M02*
