G04 #@! TF.FileFunction,Other,ECO2*
%FSLAX46Y46*%
G04 Gerber Fmt 4.6, Leading zero omitted, Abs format (unit mm)*
G04 Created by KiCad (PCBNEW 4.0.5) date 07/09/17 13:00:44*
%MOMM*%
%LPD*%
G01*
G04 APERTURE LIST*
%ADD10C,0.100000*%
%ADD11C,0.300000*%
G04 APERTURE END LIST*
D10*
D11*
X209500000Y-110128571D02*
X209500000Y-111628571D01*
X209500000Y-110200000D02*
X209357143Y-110128571D01*
X209071429Y-110128571D01*
X208928572Y-110200000D01*
X208857143Y-110271429D01*
X208785714Y-110414286D01*
X208785714Y-110842857D01*
X208857143Y-110985714D01*
X208928572Y-111057143D01*
X209071429Y-111128571D01*
X209357143Y-111128571D01*
X209500000Y-111057143D01*
X207928571Y-111128571D02*
X208071429Y-111057143D01*
X208142857Y-110914286D01*
X208142857Y-109628571D01*
X207357143Y-111128571D02*
X207357143Y-110128571D01*
X207357143Y-109628571D02*
X207428572Y-109700000D01*
X207357143Y-109771429D01*
X207285715Y-109700000D01*
X207357143Y-109628571D01*
X207357143Y-109771429D01*
X206642857Y-110128571D02*
X206642857Y-111628571D01*
X206642857Y-110200000D02*
X206500000Y-110128571D01*
X206214286Y-110128571D01*
X206071429Y-110200000D01*
X206000000Y-110271429D01*
X205928571Y-110414286D01*
X205928571Y-110842857D01*
X206000000Y-110985714D01*
X206071429Y-111057143D01*
X206214286Y-111128571D01*
X206500000Y-111128571D01*
X206642857Y-111057143D01*
X205285714Y-111128571D02*
X205285714Y-109628571D01*
X205285714Y-110200000D02*
X205142857Y-110128571D01*
X204857143Y-110128571D01*
X204714286Y-110200000D01*
X204642857Y-110271429D01*
X204571428Y-110414286D01*
X204571428Y-110842857D01*
X204642857Y-110985714D01*
X204714286Y-111057143D01*
X204857143Y-111128571D01*
X205142857Y-111128571D01*
X205285714Y-111057143D01*
X203714285Y-111128571D02*
X203857143Y-111057143D01*
X203928571Y-110985714D01*
X204000000Y-110842857D01*
X204000000Y-110414286D01*
X203928571Y-110271429D01*
X203857143Y-110200000D01*
X203714285Y-110128571D01*
X203500000Y-110128571D01*
X203357143Y-110200000D01*
X203285714Y-110271429D01*
X203214285Y-110414286D01*
X203214285Y-110842857D01*
X203285714Y-110985714D01*
X203357143Y-111057143D01*
X203500000Y-111128571D01*
X203714285Y-111128571D01*
X202714285Y-111128571D02*
X201928571Y-110128571D01*
X202714285Y-110128571D02*
X201928571Y-111128571D01*
X200214285Y-111128571D02*
X200214285Y-109628571D01*
X200214285Y-110200000D02*
X200071428Y-110128571D01*
X199785714Y-110128571D01*
X199642857Y-110200000D01*
X199571428Y-110271429D01*
X199499999Y-110414286D01*
X199499999Y-110842857D01*
X199571428Y-110985714D01*
X199642857Y-111057143D01*
X199785714Y-111128571D01*
X200071428Y-111128571D01*
X200214285Y-111057143D01*
X198999999Y-110128571D02*
X198642856Y-111128571D01*
X198285714Y-110128571D02*
X198642856Y-111128571D01*
X198785714Y-111485714D01*
X198857142Y-111557143D01*
X198999999Y-111628571D01*
X196357142Y-111128571D02*
X196500000Y-111057143D01*
X196571428Y-110914286D01*
X196571428Y-109628571D01*
X195142857Y-111128571D02*
X195142857Y-110342857D01*
X195214286Y-110200000D01*
X195357143Y-110128571D01*
X195642857Y-110128571D01*
X195785714Y-110200000D01*
X195142857Y-111057143D02*
X195285714Y-111128571D01*
X195642857Y-111128571D01*
X195785714Y-111057143D01*
X195857143Y-110914286D01*
X195857143Y-110771429D01*
X195785714Y-110628571D01*
X195642857Y-110557143D01*
X195285714Y-110557143D01*
X195142857Y-110485714D01*
X194214285Y-111128571D02*
X194357143Y-111057143D01*
X194428571Y-110914286D01*
X194428571Y-109628571D01*
X193428571Y-111128571D02*
X193571429Y-111057143D01*
X193642857Y-110914286D01*
X193642857Y-109628571D01*
X192214286Y-111128571D02*
X192214286Y-110342857D01*
X192285715Y-110200000D01*
X192428572Y-110128571D01*
X192714286Y-110128571D01*
X192857143Y-110200000D01*
X192214286Y-111057143D02*
X192357143Y-111128571D01*
X192714286Y-111128571D01*
X192857143Y-111057143D01*
X192928572Y-110914286D01*
X192928572Y-110771429D01*
X192857143Y-110628571D01*
X192714286Y-110557143D01*
X192357143Y-110557143D01*
X192214286Y-110485714D01*
X191714286Y-110128571D02*
X191142857Y-110128571D01*
X191500000Y-111128571D02*
X191500000Y-109842857D01*
X191428572Y-109700000D01*
X191285714Y-109628571D01*
X191142857Y-109628571D01*
X190000000Y-111128571D02*
X190000000Y-110342857D01*
X190071429Y-110200000D01*
X190214286Y-110128571D01*
X190500000Y-110128571D01*
X190642857Y-110200000D01*
X190000000Y-111057143D02*
X190142857Y-111128571D01*
X190500000Y-111128571D01*
X190642857Y-111057143D01*
X190714286Y-110914286D01*
X190714286Y-110771429D01*
X190642857Y-110628571D01*
X190500000Y-110557143D01*
X190142857Y-110557143D01*
X190000000Y-110485714D01*
X212892856Y-113678571D02*
X212892856Y-112178571D01*
X212321428Y-112178571D01*
X212178570Y-112250000D01*
X212107142Y-112321429D01*
X212035713Y-112464286D01*
X212035713Y-112678571D01*
X212107142Y-112821429D01*
X212178570Y-112892857D01*
X212321428Y-112964286D01*
X212892856Y-112964286D01*
X210535713Y-113535714D02*
X210607142Y-113607143D01*
X210821428Y-113678571D01*
X210964285Y-113678571D01*
X211178570Y-113607143D01*
X211321428Y-113464286D01*
X211392856Y-113321429D01*
X211464285Y-113035714D01*
X211464285Y-112821429D01*
X211392856Y-112535714D01*
X211321428Y-112392857D01*
X211178570Y-112250000D01*
X210964285Y-112178571D01*
X210821428Y-112178571D01*
X210607142Y-112250000D01*
X210535713Y-112321429D01*
X209392856Y-112892857D02*
X209178570Y-112964286D01*
X209107142Y-113035714D01*
X209035713Y-113178571D01*
X209035713Y-113392857D01*
X209107142Y-113535714D01*
X209178570Y-113607143D01*
X209321428Y-113678571D01*
X209892856Y-113678571D01*
X209892856Y-112178571D01*
X209392856Y-112178571D01*
X209249999Y-112250000D01*
X209178570Y-112321429D01*
X209107142Y-112464286D01*
X209107142Y-112607143D01*
X209178570Y-112750000D01*
X209249999Y-112821429D01*
X209392856Y-112892857D01*
X209892856Y-112892857D01*
X207321428Y-112107143D02*
X208607142Y-114035714D01*
X205964284Y-113678571D02*
X206464284Y-112964286D01*
X206821427Y-113678571D02*
X206821427Y-112178571D01*
X206249999Y-112178571D01*
X206107141Y-112250000D01*
X206035713Y-112321429D01*
X205964284Y-112464286D01*
X205964284Y-112678571D01*
X206035713Y-112821429D01*
X206107141Y-112892857D01*
X206249999Y-112964286D01*
X206821427Y-112964286D01*
X205392856Y-113607143D02*
X205178570Y-113678571D01*
X204821427Y-113678571D01*
X204678570Y-113607143D01*
X204607141Y-113535714D01*
X204535713Y-113392857D01*
X204535713Y-113250000D01*
X204607141Y-113107143D01*
X204678570Y-113035714D01*
X204821427Y-112964286D01*
X205107141Y-112892857D01*
X205249999Y-112821429D01*
X205321427Y-112750000D01*
X205392856Y-112607143D01*
X205392856Y-112464286D01*
X205321427Y-112321429D01*
X205249999Y-112250000D01*
X205107141Y-112178571D01*
X204749999Y-112178571D01*
X204535713Y-112250000D01*
X203964285Y-112321429D02*
X203892856Y-112250000D01*
X203749999Y-112178571D01*
X203392856Y-112178571D01*
X203249999Y-112250000D01*
X203178570Y-112321429D01*
X203107142Y-112464286D01*
X203107142Y-112607143D01*
X203178570Y-112821429D01*
X204035713Y-113678571D01*
X203107142Y-113678571D01*
X202607142Y-112178571D02*
X201678571Y-112178571D01*
X202178571Y-112750000D01*
X201964285Y-112750000D01*
X201821428Y-112821429D01*
X201749999Y-112892857D01*
X201678571Y-113035714D01*
X201678571Y-113392857D01*
X201749999Y-113535714D01*
X201821428Y-113607143D01*
X201964285Y-113678571D01*
X202392857Y-113678571D01*
X202535714Y-113607143D01*
X202607142Y-113535714D01*
X201107143Y-112321429D02*
X201035714Y-112250000D01*
X200892857Y-112178571D01*
X200535714Y-112178571D01*
X200392857Y-112250000D01*
X200321428Y-112321429D01*
X200250000Y-112464286D01*
X200250000Y-112607143D01*
X200321428Y-112821429D01*
X201178571Y-113678571D01*
X200250000Y-113678571D01*
X198464286Y-113678571D02*
X198464286Y-112178571D01*
X198464286Y-112750000D02*
X198321429Y-112678571D01*
X198035715Y-112678571D01*
X197892858Y-112750000D01*
X197821429Y-112821429D01*
X197750000Y-112964286D01*
X197750000Y-113392857D01*
X197821429Y-113535714D01*
X197892858Y-113607143D01*
X198035715Y-113678571D01*
X198321429Y-113678571D01*
X198464286Y-113607143D01*
X197250000Y-112678571D02*
X196892857Y-113678571D01*
X196535715Y-112678571D02*
X196892857Y-113678571D01*
X197035715Y-114035714D01*
X197107143Y-114107143D01*
X197250000Y-114178571D01*
X194821429Y-113678571D02*
X194821429Y-112178571D01*
X194678572Y-113107143D02*
X194250001Y-113678571D01*
X194250001Y-112678571D02*
X194821429Y-113250000D01*
X192964286Y-112678571D02*
X192964286Y-113678571D01*
X193607143Y-112678571D02*
X193607143Y-113464286D01*
X193535715Y-113607143D01*
X193392857Y-113678571D01*
X193178572Y-113678571D01*
X193035715Y-113607143D01*
X192964286Y-113535714D01*
X192250000Y-113678571D02*
X192250000Y-112678571D01*
X192250000Y-112964286D02*
X192178572Y-112821429D01*
X192107143Y-112750000D01*
X191964286Y-112678571D01*
X191821429Y-112678571D01*
X191107143Y-113678571D02*
X191250001Y-113607143D01*
X191321429Y-113535714D01*
X191392858Y-113392857D01*
X191392858Y-112964286D01*
X191321429Y-112821429D01*
X191250001Y-112750000D01*
X191107143Y-112678571D01*
X190892858Y-112678571D01*
X190750001Y-112750000D01*
X190678572Y-112821429D01*
X190607143Y-112964286D01*
X190607143Y-113392857D01*
X190678572Y-113535714D01*
X190750001Y-113607143D01*
X190892858Y-113678571D01*
X191107143Y-113678571D01*
X189321429Y-112178571D02*
X189607143Y-112178571D01*
X189750000Y-112250000D01*
X189821429Y-112321429D01*
X189964286Y-112535714D01*
X190035715Y-112821429D01*
X190035715Y-113392857D01*
X189964286Y-113535714D01*
X189892858Y-113607143D01*
X189750000Y-113678571D01*
X189464286Y-113678571D01*
X189321429Y-113607143D01*
X189250000Y-113535714D01*
X189178572Y-113392857D01*
X189178572Y-113035714D01*
X189250000Y-112892857D01*
X189321429Y-112821429D01*
X189464286Y-112750000D01*
X189750000Y-112750000D01*
X189892858Y-112821429D01*
X189964286Y-112892857D01*
X190035715Y-113035714D01*
X188321429Y-112821429D02*
X188464287Y-112750000D01*
X188535715Y-112678571D01*
X188607144Y-112535714D01*
X188607144Y-112464286D01*
X188535715Y-112321429D01*
X188464287Y-112250000D01*
X188321429Y-112178571D01*
X188035715Y-112178571D01*
X187892858Y-112250000D01*
X187821429Y-112321429D01*
X187750001Y-112464286D01*
X187750001Y-112535714D01*
X187821429Y-112678571D01*
X187892858Y-112750000D01*
X188035715Y-112821429D01*
X188321429Y-112821429D01*
X188464287Y-112892857D01*
X188535715Y-112964286D01*
X188607144Y-113107143D01*
X188607144Y-113392857D01*
X188535715Y-113535714D01*
X188464287Y-113607143D01*
X188321429Y-113678571D01*
X188035715Y-113678571D01*
X187892858Y-113607143D01*
X187821429Y-113535714D01*
X187750001Y-113392857D01*
X187750001Y-113107143D01*
X187821429Y-112964286D01*
X187892858Y-112892857D01*
X188035715Y-112821429D01*
X187107144Y-113678571D02*
X187107144Y-112178571D01*
X186964287Y-113107143D02*
X186535716Y-113678571D01*
X186535716Y-112678571D02*
X187107144Y-113250000D01*
X222964287Y-116228571D02*
X223107145Y-116157143D01*
X223178573Y-116014286D01*
X223178573Y-114728571D01*
X221750002Y-116228571D02*
X221750002Y-115442857D01*
X221821431Y-115300000D01*
X221964288Y-115228571D01*
X222250002Y-115228571D01*
X222392859Y-115300000D01*
X221750002Y-116157143D02*
X221892859Y-116228571D01*
X222250002Y-116228571D01*
X222392859Y-116157143D01*
X222464288Y-116014286D01*
X222464288Y-115871429D01*
X222392859Y-115728571D01*
X222250002Y-115657143D01*
X221892859Y-115657143D01*
X221750002Y-115585714D01*
X220821430Y-116228571D02*
X220964288Y-116157143D01*
X221035716Y-116014286D01*
X221035716Y-114728571D01*
X220035716Y-116228571D02*
X220178574Y-116157143D01*
X220250002Y-116014286D01*
X220250002Y-114728571D01*
X218821431Y-116228571D02*
X218821431Y-115442857D01*
X218892860Y-115300000D01*
X219035717Y-115228571D01*
X219321431Y-115228571D01*
X219464288Y-115300000D01*
X218821431Y-116157143D02*
X218964288Y-116228571D01*
X219321431Y-116228571D01*
X219464288Y-116157143D01*
X219535717Y-116014286D01*
X219535717Y-115871429D01*
X219464288Y-115728571D01*
X219321431Y-115657143D01*
X218964288Y-115657143D01*
X218821431Y-115585714D01*
X218321431Y-115228571D02*
X217750002Y-115228571D01*
X218107145Y-116228571D02*
X218107145Y-114942857D01*
X218035717Y-114800000D01*
X217892859Y-114728571D01*
X217750002Y-114728571D01*
X216607145Y-116228571D02*
X216607145Y-115442857D01*
X216678574Y-115300000D01*
X216821431Y-115228571D01*
X217107145Y-115228571D01*
X217250002Y-115300000D01*
X216607145Y-116157143D02*
X216750002Y-116228571D01*
X217107145Y-116228571D01*
X217250002Y-116157143D01*
X217321431Y-116014286D01*
X217321431Y-115871429D01*
X217250002Y-115728571D01*
X217107145Y-115657143D01*
X216750002Y-115657143D01*
X216607145Y-115585714D01*
X215892859Y-116085714D02*
X215821431Y-116157143D01*
X215892859Y-116228571D01*
X215964288Y-116157143D01*
X215892859Y-116085714D01*
X215892859Y-116228571D01*
X214535716Y-116228571D02*
X214535716Y-114728571D01*
X214535716Y-116157143D02*
X214678573Y-116228571D01*
X214964287Y-116228571D01*
X215107145Y-116157143D01*
X215178573Y-116085714D01*
X215250002Y-115942857D01*
X215250002Y-115514286D01*
X215178573Y-115371429D01*
X215107145Y-115300000D01*
X214964287Y-115228571D01*
X214678573Y-115228571D01*
X214535716Y-115300000D01*
X213250002Y-116157143D02*
X213392859Y-116228571D01*
X213678573Y-116228571D01*
X213821430Y-116157143D01*
X213892859Y-116014286D01*
X213892859Y-115442857D01*
X213821430Y-115300000D01*
X213678573Y-115228571D01*
X213392859Y-115228571D01*
X213250002Y-115300000D01*
X213178573Y-115442857D01*
X213178573Y-115585714D01*
X213892859Y-115728571D01*
X211464288Y-114657143D02*
X212750002Y-116585714D01*
X210964287Y-116228571D02*
X210964287Y-114728571D01*
X210964287Y-115300000D02*
X210821430Y-115228571D01*
X210535716Y-115228571D01*
X210392859Y-115300000D01*
X210321430Y-115371429D01*
X210250001Y-115514286D01*
X210250001Y-115942857D01*
X210321430Y-116085714D01*
X210392859Y-116157143D01*
X210535716Y-116228571D01*
X210821430Y-116228571D01*
X210964287Y-116157143D01*
X209392858Y-116228571D02*
X209535716Y-116157143D01*
X209607144Y-116014286D01*
X209607144Y-114728571D01*
X208607144Y-116228571D02*
X208750002Y-116157143D01*
X208821430Y-116085714D01*
X208892859Y-115942857D01*
X208892859Y-115514286D01*
X208821430Y-115371429D01*
X208750002Y-115300000D01*
X208607144Y-115228571D01*
X208392859Y-115228571D01*
X208250002Y-115300000D01*
X208178573Y-115371429D01*
X208107144Y-115514286D01*
X208107144Y-115942857D01*
X208178573Y-116085714D01*
X208250002Y-116157143D01*
X208392859Y-116228571D01*
X208607144Y-116228571D01*
X206821430Y-115228571D02*
X206821430Y-116442857D01*
X206892859Y-116585714D01*
X206964287Y-116657143D01*
X207107144Y-116728571D01*
X207321430Y-116728571D01*
X207464287Y-116657143D01*
X206821430Y-116157143D02*
X206964287Y-116228571D01*
X207250001Y-116228571D01*
X207392859Y-116157143D01*
X207464287Y-116085714D01*
X207535716Y-115942857D01*
X207535716Y-115514286D01*
X207464287Y-115371429D01*
X207392859Y-115300000D01*
X207250001Y-115228571D01*
X206964287Y-115228571D01*
X206821430Y-115300000D01*
X205035716Y-114657143D02*
X206321430Y-116585714D01*
X203892858Y-116228571D02*
X203892858Y-115442857D01*
X203964287Y-115300000D01*
X204107144Y-115228571D01*
X204392858Y-115228571D01*
X204535715Y-115300000D01*
X203892858Y-116157143D02*
X204035715Y-116228571D01*
X204392858Y-116228571D01*
X204535715Y-116157143D01*
X204607144Y-116014286D01*
X204607144Y-115871429D01*
X204535715Y-115728571D01*
X204392858Y-115657143D01*
X204035715Y-115657143D01*
X203892858Y-115585714D01*
X203178572Y-116228571D02*
X203178572Y-115228571D01*
X203178572Y-115371429D02*
X203107144Y-115300000D01*
X202964286Y-115228571D01*
X202750001Y-115228571D01*
X202607144Y-115300000D01*
X202535715Y-115442857D01*
X202535715Y-116228571D01*
X202535715Y-115442857D02*
X202464286Y-115300000D01*
X202321429Y-115228571D01*
X202107144Y-115228571D01*
X201964286Y-115300000D01*
X201892858Y-115442857D01*
X201892858Y-116228571D01*
X201178572Y-116228571D02*
X201178572Y-115228571D01*
X201178572Y-114728571D02*
X201250001Y-114800000D01*
X201178572Y-114871429D01*
X201107144Y-114800000D01*
X201178572Y-114728571D01*
X201178572Y-114871429D01*
X199821429Y-115228571D02*
X199821429Y-116442857D01*
X199892858Y-116585714D01*
X199964286Y-116657143D01*
X200107143Y-116728571D01*
X200321429Y-116728571D01*
X200464286Y-116657143D01*
X199821429Y-116157143D02*
X199964286Y-116228571D01*
X200250000Y-116228571D01*
X200392858Y-116157143D01*
X200464286Y-116085714D01*
X200535715Y-115942857D01*
X200535715Y-115514286D01*
X200464286Y-115371429D01*
X200392858Y-115300000D01*
X200250000Y-115228571D01*
X199964286Y-115228571D01*
X199821429Y-115300000D01*
X198464286Y-116228571D02*
X198464286Y-115442857D01*
X198535715Y-115300000D01*
X198678572Y-115228571D01*
X198964286Y-115228571D01*
X199107143Y-115300000D01*
X198464286Y-116157143D02*
X198607143Y-116228571D01*
X198964286Y-116228571D01*
X199107143Y-116157143D01*
X199178572Y-116014286D01*
X199178572Y-115871429D01*
X199107143Y-115728571D01*
X198964286Y-115657143D01*
X198607143Y-115657143D01*
X198464286Y-115585714D01*
X197750000Y-115657143D02*
X196607143Y-115657143D01*
X195892857Y-115228571D02*
X195892857Y-116728571D01*
X195892857Y-115300000D02*
X195750000Y-115228571D01*
X195464286Y-115228571D01*
X195321429Y-115300000D01*
X195250000Y-115371429D01*
X195178571Y-115514286D01*
X195178571Y-115942857D01*
X195250000Y-116085714D01*
X195321429Y-116157143D01*
X195464286Y-116228571D01*
X195750000Y-116228571D01*
X195892857Y-116157143D01*
X194535714Y-116228571D02*
X194535714Y-115228571D01*
X194535714Y-115514286D02*
X194464286Y-115371429D01*
X194392857Y-115300000D01*
X194250000Y-115228571D01*
X194107143Y-115228571D01*
X193392857Y-116228571D02*
X193535715Y-116157143D01*
X193607143Y-116085714D01*
X193678572Y-115942857D01*
X193678572Y-115514286D01*
X193607143Y-115371429D01*
X193535715Y-115300000D01*
X193392857Y-115228571D01*
X193178572Y-115228571D01*
X193035715Y-115300000D01*
X192964286Y-115371429D01*
X192892857Y-115514286D01*
X192892857Y-115942857D01*
X192964286Y-116085714D01*
X193035715Y-116157143D01*
X193178572Y-116228571D01*
X193392857Y-116228571D01*
X192250000Y-115228571D02*
X192250000Y-116514286D01*
X192321429Y-116657143D01*
X192464286Y-116728571D01*
X192535714Y-116728571D01*
X192250000Y-114728571D02*
X192321429Y-114800000D01*
X192250000Y-114871429D01*
X192178572Y-114800000D01*
X192250000Y-114728571D01*
X192250000Y-114871429D01*
X190964286Y-116157143D02*
X191107143Y-116228571D01*
X191392857Y-116228571D01*
X191535714Y-116157143D01*
X191607143Y-116014286D01*
X191607143Y-115442857D01*
X191535714Y-115300000D01*
X191392857Y-115228571D01*
X191107143Y-115228571D01*
X190964286Y-115300000D01*
X190892857Y-115442857D01*
X190892857Y-115585714D01*
X191607143Y-115728571D01*
X189607143Y-116157143D02*
X189750000Y-116228571D01*
X190035714Y-116228571D01*
X190178572Y-116157143D01*
X190250000Y-116085714D01*
X190321429Y-115942857D01*
X190321429Y-115514286D01*
X190250000Y-115371429D01*
X190178572Y-115300000D01*
X190035714Y-115228571D01*
X189750000Y-115228571D01*
X189607143Y-115300000D01*
X189178572Y-115228571D02*
X188607143Y-115228571D01*
X188964286Y-114728571D02*
X188964286Y-116014286D01*
X188892858Y-116157143D01*
X188750000Y-116228571D01*
X188607143Y-116228571D01*
X188178572Y-116157143D02*
X188035715Y-116228571D01*
X187750000Y-116228571D01*
X187607143Y-116157143D01*
X187535715Y-116014286D01*
X187535715Y-115942857D01*
X187607143Y-115800000D01*
X187750000Y-115728571D01*
X187964286Y-115728571D01*
X188107143Y-115657143D01*
X188178572Y-115514286D01*
X188178572Y-115442857D01*
X188107143Y-115300000D01*
X187964286Y-115228571D01*
X187750000Y-115228571D01*
X187607143Y-115300000D01*
X185821429Y-114657143D02*
X187107143Y-116585714D01*
X185321428Y-115228571D02*
X185321428Y-116728571D01*
X185321428Y-115300000D02*
X185178571Y-115228571D01*
X184892857Y-115228571D01*
X184750000Y-115300000D01*
X184678571Y-115371429D01*
X184607142Y-115514286D01*
X184607142Y-115942857D01*
X184678571Y-116085714D01*
X184750000Y-116157143D01*
X184892857Y-116228571D01*
X185178571Y-116228571D01*
X185321428Y-116157143D01*
X183749999Y-116228571D02*
X183892857Y-116157143D01*
X183964285Y-116014286D01*
X183964285Y-114728571D01*
X183178571Y-116228571D02*
X183178571Y-115228571D01*
X183178571Y-114728571D02*
X183250000Y-114800000D01*
X183178571Y-114871429D01*
X183107143Y-114800000D01*
X183178571Y-114728571D01*
X183178571Y-114871429D01*
X182464285Y-115228571D02*
X182464285Y-116728571D01*
X182464285Y-115300000D02*
X182321428Y-115228571D01*
X182035714Y-115228571D01*
X181892857Y-115300000D01*
X181821428Y-115371429D01*
X181749999Y-115514286D01*
X181749999Y-115942857D01*
X181821428Y-116085714D01*
X181892857Y-116157143D01*
X182035714Y-116228571D01*
X182321428Y-116228571D01*
X182464285Y-116157143D01*
X181107142Y-116228571D02*
X181107142Y-114728571D01*
X181107142Y-115300000D02*
X180964285Y-115228571D01*
X180678571Y-115228571D01*
X180535714Y-115300000D01*
X180464285Y-115371429D01*
X180392856Y-115514286D01*
X180392856Y-115942857D01*
X180464285Y-116085714D01*
X180535714Y-116157143D01*
X180678571Y-116228571D01*
X180964285Y-116228571D01*
X181107142Y-116157143D01*
X179535713Y-116228571D02*
X179678571Y-116157143D01*
X179749999Y-116085714D01*
X179821428Y-115942857D01*
X179821428Y-115514286D01*
X179749999Y-115371429D01*
X179678571Y-115300000D01*
X179535713Y-115228571D01*
X179321428Y-115228571D01*
X179178571Y-115300000D01*
X179107142Y-115371429D01*
X179035713Y-115514286D01*
X179035713Y-115942857D01*
X179107142Y-116085714D01*
X179178571Y-116157143D01*
X179321428Y-116228571D01*
X179535713Y-116228571D01*
X178535713Y-116228571D02*
X177749999Y-115228571D01*
X178535713Y-115228571D02*
X177749999Y-116228571D01*
X176107142Y-114657143D02*
X177392856Y-116585714D01*
M02*
