M48
;DRILL file {KiCad 4.0.5} date 07/09/17 21:50:42
;FORMAT={2:4/ absolute / inch / keep zeros}
FMAT,2
INCH,TZ
T1C0.016
T2C0.031
T3C0.039
T4C0.043
T5C0.126
%
G90
G05
M72
T1
X069291Y-046161
X069488Y-042815
X070669Y-045079
X070669Y-046555
X071949Y-043898
X076575Y-040650
X080512Y-039370
X081693Y-039862
T2
X073315Y-041732
X073315Y-047732
X074315Y-041732
X074315Y-047732
X075315Y-041732
X075315Y-047732
X076315Y-041732
X076315Y-047732
X077315Y-041732
X077315Y-047732
X078315Y-041732
X078315Y-047732
X079315Y-041732
X079315Y-047732
X080315Y-041732
X080315Y-047732
X081315Y-041732
X081315Y-047732
X082315Y-041732
X082315Y-047732
X083315Y-041732
X083315Y-047732
X084315Y-041732
X084315Y-047732
X085315Y-041732
X085315Y-047732
X086315Y-041732
X086315Y-047732
X087315Y-041732
X087315Y-047732
T3
X068110Y-040929
X068110Y-041929
X068110Y-042929
X068110Y-045063
X068110Y-046063
X068110Y-047063
T4
X071213Y-038520
X071758Y-037402
X072303Y-038520
X072848Y-037402
X073394Y-038520
X073939Y-037402
X074484Y-038520
X075030Y-037402
X075575Y-038520
X076120Y-037402
X076665Y-038520
X077211Y-037402
X077756Y-038520
X078301Y-037402
X078846Y-038520
X079392Y-037402
X079937Y-038520
X080482Y-037402
X081028Y-038520
X081573Y-037402
X082118Y-038520
X082663Y-037402
X083209Y-038520
X083754Y-037402
X084299Y-038520
T5
X068484Y-037961
X087028Y-037961
T0
M30
