G04 #@! TF.FileFunction,Soldermask,Top*
%FSLAX46Y46*%
G04 Gerber Fmt 4.6, Leading zero omitted, Abs format (unit mm)*
G04 Created by KiCad (PCBNEW 4.0.5) date 07/09/17 13:00:44*
%MOMM*%
%LPD*%
G01*
G04 APERTURE LIST*
%ADD10C,0.100000*%
%ADD11R,2.000000X2.800000*%
%ADD12O,2.000000X2.800000*%
%ADD13R,1.600000X1.150000*%
%ADD14R,1.150000X1.600000*%
%ADD15R,2.100000X2.100000*%
%ADD16O,2.100000X2.100000*%
%ADD17R,0.850000X1.900000*%
%ADD18C,4.900000*%
%ADD19C,2.100000*%
G04 APERTURE END LIST*
D10*
D11*
X186220000Y-121240000D03*
D12*
X219240000Y-106000000D03*
X188760000Y-121240000D03*
X216700000Y-106000000D03*
X191300000Y-121240000D03*
X214160000Y-106000000D03*
X193840000Y-121240000D03*
X211620000Y-106000000D03*
X196380000Y-121240000D03*
X209080000Y-106000000D03*
X198920000Y-121240000D03*
X206540000Y-106000000D03*
X201460000Y-121240000D03*
X204000000Y-106000000D03*
X204000000Y-121240000D03*
X201460000Y-106000000D03*
X206540000Y-121240000D03*
X198920000Y-106000000D03*
X209080000Y-121240000D03*
X196380000Y-106000000D03*
X211620000Y-121240000D03*
X193840000Y-106000000D03*
X214160000Y-121240000D03*
X191300000Y-106000000D03*
X216700000Y-121240000D03*
X188760000Y-106000000D03*
X219240000Y-121240000D03*
X186220000Y-106000000D03*
X221780000Y-121240000D03*
X221780000Y-106000000D03*
D13*
X182700000Y-107750000D03*
X180800000Y-107750000D03*
X182700000Y-118250000D03*
X180800000Y-118250000D03*
D14*
X176500000Y-114050000D03*
X176500000Y-115950000D03*
X178750000Y-105550000D03*
X178750000Y-107450000D03*
X176500000Y-111950000D03*
X176500000Y-110050000D03*
D15*
X173000000Y-103960000D03*
D16*
X173000000Y-106500000D03*
X173000000Y-109040000D03*
D15*
X173000000Y-119540000D03*
D16*
X173000000Y-117000000D03*
X173000000Y-114460000D03*
D17*
X182775000Y-110050000D03*
X182125000Y-110050000D03*
X181475000Y-110050000D03*
X180825000Y-110050000D03*
X180175000Y-110050000D03*
X179525000Y-110050000D03*
X178875000Y-110050000D03*
X178225000Y-110050000D03*
X178225000Y-115950000D03*
X178875000Y-115950000D03*
X179525000Y-115950000D03*
X180175000Y-115950000D03*
X180825000Y-115950000D03*
X181475000Y-115950000D03*
X182125000Y-115950000D03*
X182775000Y-115950000D03*
D18*
X173950000Y-96420000D03*
X221050000Y-96420000D03*
D19*
X214120000Y-97840000D03*
X211350000Y-97840000D03*
X208580000Y-97840000D03*
X205810000Y-97840000D03*
X203040000Y-97840000D03*
X200270000Y-97840000D03*
X197500000Y-97840000D03*
X194730000Y-97840000D03*
X191960000Y-97840000D03*
X189190000Y-97840000D03*
X186420000Y-97840000D03*
X183650000Y-97840000D03*
X180880000Y-97840000D03*
X212735000Y-95000000D03*
X209965000Y-95000000D03*
X207195000Y-95000000D03*
X204425000Y-95000000D03*
X201655000Y-95000000D03*
X198885000Y-95000000D03*
X196115000Y-95000000D03*
X193345000Y-95000000D03*
X190575000Y-95000000D03*
X187805000Y-95000000D03*
X185035000Y-95000000D03*
X182265000Y-95000000D03*
M02*
