M48
;DRILL file {KiCad 4.0.5} date 07/09/17 12:58:19
;FORMAT={3:3/ absolute / metric / keep zeros}
FMAT,2
METRIC,TZ
T1C0.400
T2C0.800
T3C1.000
T4C1.100
T5C3.200
%
G90
G05
M71
T1
X176000Y-117250
X176500Y-108750
X179500Y-114500
X179500Y-118250
X182750Y-111500
X194500Y-103250
X204500Y-100000
X207500Y-101250
T2
X186220Y-106000
X186220Y-121240
X188760Y-106000
X188760Y-121240
X191300Y-106000
X191300Y-121240
X193840Y-106000
X193840Y-121240
X196380Y-106000
X196380Y-121240
X198920Y-106000
X198920Y-121240
X201460Y-106000
X201460Y-121240
X204000Y-106000
X204000Y-121240
X206540Y-106000
X206540Y-121240
X209080Y-106000
X209080Y-121240
X211620Y-106000
X211620Y-121240
X214160Y-106000
X214160Y-121240
X216700Y-106000
X216700Y-121240
X219240Y-106000
X219240Y-121240
X221780Y-106000
X221780Y-121240
T3
X173000Y-103960
X173000Y-106500
X173000Y-109040
X173000Y-114460
X173000Y-117000
X173000Y-119540
T4
X180880Y-097840
X182265Y-095000
X183650Y-097840
X185035Y-095000
X186420Y-097840
X187805Y-095000
X189190Y-097840
X190575Y-095000
X191960Y-097840
X193345Y-095000
X194730Y-097840
X196115Y-095000
X197500Y-097840
X198885Y-095000
X200270Y-097840
X201655Y-095000
X203040Y-097840
X204425Y-095000
X205810Y-097840
X207195Y-095000
X208580Y-097840
X209965Y-095000
X211350Y-097840
X212735Y-095000
X214120Y-097840
T5
X173950Y-096420
X221050Y-096420
T0
M30
